M48
; DRILL file {KiCad (6.0.10)} date Tue Jan 17 00:53:27 2023
; FORMAT={-:-/ absolute / metric / decimal}
; #@! TF.CreationDate,2023-01-17T00:53:27+01:00
; #@! TF.GenerationSoftware,Kicad,Pcbnew,(6.0.10)
; #@! TF.FileFunction,Plated,1,2,PTH
FMAT,2
METRIC
; #@! TA.AperFunction,Plated,PTH,ComponentDrill
T1C1.000
; #@! TA.AperFunction,Plated,PTH,ComponentDrill
T2C1.100
; #@! TA.AperFunction,Plated,PTH,ComponentDrill
T3C1.190
%
G90
G05
T1
X39.0Y-48.0
X41.5Y-48.0
X48.0Y-48.0
X50.5Y-48.0
X53.0Y-128.0
X55.5Y-128.0
X63.0Y-128.0
X65.5Y-128.0
X73.0Y-128.0
X75.5Y-128.0
X77.0Y-95.0
X77.0Y-104.0
X79.5Y-95.0
X79.5Y-104.0
T2
X37.75Y-60.5
X37.75Y-130.5
X40.25Y-130.5
X42.75Y-60.5
X42.75Y-130.5
X45.25Y-130.5
X48.03Y-71.38
X48.03Y-86.62
X50.57Y-71.38
X50.57Y-86.62
X53.11Y-71.38
X53.11Y-86.62
X55.65Y-71.38
X55.65Y-86.62
X58.19Y-71.38
X58.19Y-86.62
X60.73Y-71.38
X60.73Y-86.62
X63.27Y-71.38
X63.27Y-86.62
X65.81Y-71.38
X65.81Y-86.62
X68.35Y-71.38
X68.35Y-86.62
X70.89Y-71.38
X70.89Y-86.62
X73.43Y-71.38
X73.43Y-86.62
X75.97Y-71.38
X75.97Y-86.62
T3
X51.84Y-115.98
X54.38Y-115.98
X56.92Y-115.98
X59.46Y-115.98
X62.0Y-115.98
X64.54Y-115.98
X67.08Y-115.98
X69.62Y-115.98
X72.16Y-115.98
T0
M30
