%TF.GenerationSoftware,KiCad,Pcbnew,(6.0.10)*%
%TF.CreationDate,2023-01-17T00:52:56+01:00*%
%TF.ProjectId,SC_Mining_Controller_MkI,53435f4d-696e-4696-9e67-5f436f6e7472,1*%
%TF.SameCoordinates,Original*%
%TF.FileFunction,Copper,L2,Bot*%
%TF.FilePolarity,Positive*%
%FSLAX46Y46*%
G04 Gerber Fmt 4.6, Leading zero omitted, Abs format (unit mm)*
G04 Created by KiCad (PCBNEW (6.0.10)) date 2023-01-17 00:52:56*
%MOMM*%
%LPD*%
G01*
G04 APERTURE LIST*
G04 Aperture macros list*
%AMRoundRect*
0 Rectangle with rounded corners*
0 $1 Rounding radius*
0 $2 $3 $4 $5 $6 $7 $8 $9 X,Y pos of 4 corners*
0 Add a 4 corners polygon primitive as box body*
4,1,4,$2,$3,$4,$5,$6,$7,$8,$9,$2,$3,0*
0 Add four circle primitives for the rounded corners*
1,1,$1+$1,$2,$3*
1,1,$1+$1,$4,$5*
1,1,$1+$1,$6,$7*
1,1,$1+$1,$8,$9*
0 Add four rect primitives between the rounded corners*
20,1,$1+$1,$2,$3,$4,$5,0*
20,1,$1+$1,$4,$5,$6,$7,0*
20,1,$1+$1,$6,$7,$8,$9,0*
20,1,$1+$1,$8,$9,$2,$3,0*%
G04 Aperture macros list end*
%TA.AperFunction,ComponentPad*%
%ADD10RoundRect,0.250000X-0.600000X-0.750000X0.600000X-0.750000X0.600000X0.750000X-0.600000X0.750000X0*%
%TD*%
%TA.AperFunction,ComponentPad*%
%ADD11O,1.700000X2.000000*%
%TD*%
%TA.AperFunction,ComponentPad*%
%ADD12RoundRect,0.250000X0.620000X0.845000X-0.620000X0.845000X-0.620000X-0.845000X0.620000X-0.845000X0*%
%TD*%
%TA.AperFunction,ComponentPad*%
%ADD13O,1.740000X2.190000*%
%TD*%
%TA.AperFunction,ComponentPad*%
%ADD14R,1.600000X1.600000*%
%TD*%
%TA.AperFunction,ComponentPad*%
%ADD15C,1.600000*%
%TD*%
%TA.AperFunction,ComponentPad*%
%ADD16C,1.850000*%
%TD*%
%TA.AperFunction,Conductor*%
%ADD17C,0.250000*%
%TD*%
G04 APERTURE END LIST*
D10*
%TO.P,SW2,1,A*%
%TO.N,GND*%
X77000000Y-104000000D03*
D11*
%TO.P,SW2,2,B*%
%TO.N,Net-(SW2-Pad2)*%
X79500000Y-104000000D03*
%TD*%
D10*
%TO.P,SW5,1,A*%
%TO.N,GND*%
X53000000Y-128000000D03*
D11*
%TO.P,SW5,2,B*%
%TO.N,Net-(SW5-Pad2)*%
X55500000Y-128000000D03*
%TD*%
D10*
%TO.P,SW6,1,A*%
%TO.N,GND*%
X48000000Y-48000000D03*
D11*
%TO.P,SW6,2,B*%
%TO.N,Net-(SW6-Pad2)*%
X50500000Y-48000000D03*
%TD*%
D10*
%TO.P,SW7,1,A*%
%TO.N,GND*%
X39000000Y-48000000D03*
D11*
%TO.P,SW7,2,B*%
%TO.N,Net-(SW7-Pad2)*%
X41500000Y-48000000D03*
%TD*%
D10*
%TO.P,SW4,1,A*%
%TO.N,GND*%
X63000000Y-128000000D03*
D11*
%TO.P,SW4,2,B*%
%TO.N,Net-(SW4-Pad2)*%
X65500000Y-128000000D03*
%TD*%
D10*
%TO.P,SW3,1,A*%
%TO.N,GND*%
X73000000Y-128000000D03*
D11*
%TO.P,SW3,2,B*%
%TO.N,Net-(SW3-Pad2)*%
X75500000Y-128000000D03*
%TD*%
D12*
%TO.P,JOY1,1,GND*%
%TO.N,GND*%
X72160000Y-115980000D03*
D13*
%TO.P,JOY1,2,Center_Tap_Ref*%
%TO.N,Net-(JOY1-Pad2)*%
X69620000Y-115980000D03*
%TO.P,JOY1,3,NC*%
%TO.N,unconnected-(JOY1-Pad3)*%
X67080000Y-115980000D03*
%TO.P,JOY1,4,Y_Axis*%
%TO.N,Net-(JOY1-Pad4)*%
X64540000Y-115980000D03*
%TO.P,JOY1,5,X_Axis*%
%TO.N,Net-(JOY1-Pad5)*%
X62000000Y-115980000D03*
%TO.P,JOY1,6,+5V*%
%TO.N,+5V*%
X59460000Y-115980000D03*
%TO.P,JOY1,7,Center_Detect*%
%TO.N,Net-(JOY1-Pad7)*%
X56920000Y-115980000D03*
%TO.P,JOY1,8,Switch_In_(NO)*%
%TO.N,Net-(JOY1-Pad8)*%
X54380000Y-115980000D03*
%TO.P,JOY1,9,Switch_OUT_(NO)*%
%TO.N,GND*%
X51840000Y-115980000D03*
%TD*%
D14*
%TO.P,U1,1,1/TX*%
%TO.N,unconnected-(U1-Pad1)*%
X75970000Y-71380000D03*
D15*
%TO.P,U1,2,0/RX*%
%TO.N,unconnected-(U1-Pad2)*%
X73430000Y-71380000D03*
%TO.P,U1,3,GND*%
%TO.N,GND*%
X70890000Y-71380000D03*
%TO.P,U1,4,GND*%
X68350000Y-71380000D03*
%TO.P,U1,5,2/SDA*%
%TO.N,Net-(SW1-Pad2)*%
X65810000Y-71380000D03*
%TO.P,U1,6,3/SCL/~*%
%TO.N,Net-(SW2-Pad2)*%
X63270000Y-71380000D03*
%TO.P,U1,7,4/(A6)*%
%TO.N,Net-(SW3-Pad2)*%
X60730000Y-71380000D03*
%TO.P,U1,8,5/~*%
%TO.N,Net-(SW4-Pad2)*%
X58190000Y-71380000D03*
%TO.P,U1,9,6/(A7)/~*%
%TO.N,Net-(SW5-Pad2)*%
X55650000Y-71380000D03*
%TO.P,U1,10,7*%
%TO.N,Net-(SW6-Pad2)*%
X53110000Y-71380000D03*
%TO.P,U1,11,8/(A8)*%
%TO.N,Net-(SW7-Pad2)*%
X50570000Y-71380000D03*
%TO.P,U1,12,9/(A9)/~*%
%TO.N,unconnected-(U1-Pad12)*%
X48030000Y-71380000D03*
%TO.P,U1,13,~/(A10)/10*%
%TO.N,Net-(RV1-Pad2)*%
X48030000Y-86620000D03*
%TO.P,U1,14,MOSI/16*%
%TO.N,unconnected-(U1-Pad14)*%
X50570000Y-86620000D03*
%TO.P,U1,15,MISO/14*%
%TO.N,Net-(JOY1-Pad8)*%
X53110000Y-86620000D03*
%TO.P,U1,16,SCLK/15*%
%TO.N,Net-(JOY1-Pad7)*%
X55650000Y-86620000D03*
%TO.P,U1,17,(18)/A0*%
%TO.N,Net-(JOY1-Pad5)*%
X58190000Y-86620000D03*
%TO.P,U1,18,(19)/A1*%
%TO.N,Net-(JOY1-Pad4)*%
X60730000Y-86620000D03*
%TO.P,U1,19,(20)/A2*%
%TO.N,Net-(JOY1-Pad2)*%
X63270000Y-86620000D03*
%TO.P,U1,20,(21)/A3*%
%TO.N,unconnected-(U1-Pad20)*%
X65810000Y-86620000D03*
%TO.P,U1,21,VCC*%
%TO.N,+5V*%
X68350000Y-86620000D03*
%TO.P,U1,22,~{RST}*%
%TO.N,unconnected-(U1-Pad22)*%
X70890000Y-86620000D03*
%TO.P,U1,23,GND*%
%TO.N,GND*%
X73430000Y-86620000D03*
%TO.P,U1,24,RAW*%
%TO.N,unconnected-(U1-Pad24)*%
X75970000Y-86620000D03*
%TD*%
D10*
%TO.P,SW1,1,A*%
%TO.N,GND*%
X77000000Y-95000000D03*
D11*
%TO.P,SW1,2,B*%
%TO.N,Net-(SW1-Pad2)*%
X79500000Y-95000000D03*
%TD*%
D16*
%TO.P,RV1,1,1*%
%TO.N,+5V*%
X37750000Y-130500000D03*
%TO.P,RV1,2,2*%
%TO.N,Net-(RV1-Pad2)*%
X40250000Y-130500000D03*
%TO.P,RV1,3,3*%
%TO.N,GND*%
X37750000Y-60500000D03*
%TO.P,RV1,4,4*%
%TO.N,unconnected-(RV1-Pad4)*%
X42750000Y-130500000D03*
%TO.P,RV1,5,5*%
%TO.N,unconnected-(RV1-Pad5)*%
X45250000Y-130500000D03*
%TO.P,RV1,6,6*%
%TO.N,unconnected-(RV1-Pad6)*%
X42750000Y-60500000D03*
%TD*%
D17*
%TO.N,Net-(SW3-Pad2)*%
X60730000Y-71380000D02*
X72078817Y-82728817D01*
X72078817Y-91078817D02*
X75500000Y-94500000D01*
X75500000Y-94500000D02*
X75500000Y-128000000D01*
X72078817Y-82728817D02*
X72078817Y-91078817D01*
%TO.N,Net-(SW4-Pad2)*%
X54235000Y-75335000D02*
X54235000Y-111380015D01*
X58115000Y-115260015D02*
X58115000Y-120615000D01*
X58190000Y-71380000D02*
X54235000Y-75335000D01*
X54235000Y-111380015D02*
X58115000Y-115260015D01*
X58115000Y-120615000D02*
X65500000Y-128000000D01*
%TD*%
%TA.AperFunction,Conductor*%
%TO.N,+5V*%
G36*
X54433621Y-35528502D02*
G01*
X54480114Y-35582158D01*
X54491500Y-35634500D01*
X54491500Y-65991377D01*
X54491498Y-65992147D01*
X54491024Y-66069721D01*
X54493491Y-66078352D01*
X54499150Y-66098153D01*
X54502728Y-66114915D01*
X54506920Y-66144187D01*
X54510634Y-66152355D01*
X54510634Y-66152356D01*
X54517548Y-66167562D01*
X54523996Y-66185086D01*
X54531051Y-66209771D01*
X54535843Y-66217365D01*
X54535844Y-66217368D01*
X54546830Y-66234780D01*
X54554969Y-66249863D01*
X54567208Y-66276782D01*
X54573069Y-66283584D01*
X54583970Y-66296235D01*
X54595073Y-66311239D01*
X54608776Y-66332958D01*
X54615501Y-66338897D01*
X54615504Y-66338901D01*
X54630938Y-66352532D01*
X54642982Y-66364724D01*
X54656427Y-66380327D01*
X54656430Y-66380329D01*
X54662287Y-66387127D01*
X54669816Y-66392007D01*
X54669817Y-66392008D01*
X54683835Y-66401094D01*
X54698709Y-66412385D01*
X54711217Y-66423431D01*
X54717951Y-66429378D01*
X54744711Y-66441942D01*
X54759691Y-66450263D01*
X54776983Y-66461471D01*
X54776988Y-66461473D01*
X54784515Y-66466352D01*
X54793108Y-66468922D01*
X54793113Y-66468924D01*
X54809120Y-66473711D01*
X54826564Y-66480372D01*
X54841676Y-66487467D01*
X54841678Y-66487468D01*
X54849800Y-66491281D01*
X54858667Y-66492662D01*
X54858668Y-66492662D01*
X54868310Y-66494163D01*
X54879017Y-66495830D01*
X54895732Y-66499613D01*
X54915466Y-66505515D01*
X54915472Y-66505516D01*
X54924066Y-66508086D01*
X54933037Y-66508141D01*
X54933038Y-66508141D01*
X54943097Y-66508202D01*
X54958506Y-66508296D01*
X54959289Y-66508329D01*
X54960386Y-66508500D01*
X54991377Y-66508500D01*
X54992147Y-66508502D01*
X55065785Y-66508952D01*
X55065786Y-66508952D01*
X55069721Y-66508976D01*
X55071065Y-66508592D01*
X55072410Y-66508500D01*
X77365500Y-66508500D01*
X77433621Y-66528502D01*
X77480114Y-66582158D01*
X77491500Y-66634500D01*
X77491500Y-70360829D01*
X77471498Y-70428950D01*
X77417842Y-70475443D01*
X77347568Y-70485547D01*
X77282988Y-70456053D01*
X77247518Y-70405058D01*
X77223768Y-70341705D01*
X77223767Y-70341703D01*
X77220615Y-70333295D01*
X77133261Y-70216739D01*
X77016705Y-70129385D01*
X76880316Y-70078255D01*
X76818134Y-70071500D01*
X75121866Y-70071500D01*
X75059684Y-70078255D01*
X74923295Y-70129385D01*
X74806739Y-70216739D01*
X74719385Y-70333295D01*
X74668255Y-70469684D01*
X74667083Y-70480474D01*
X74666197Y-70482606D01*
X74665575Y-70485222D01*
X74665152Y-70485121D01*
X74639845Y-70546035D01*
X74581483Y-70586463D01*
X74510529Y-70588922D01*
X74449510Y-70552629D01*
X74442511Y-70543969D01*
X74439354Y-70540207D01*
X74436198Y-70535700D01*
X74274300Y-70373802D01*
X74269792Y-70370645D01*
X74269789Y-70370643D01*
X74191611Y-70315902D01*
X74086749Y-70242477D01*
X74081767Y-70240154D01*
X74081762Y-70240151D01*
X73884225Y-70148039D01*
X73884224Y-70148039D01*
X73879243Y-70145716D01*
X73873935Y-70144294D01*
X73873933Y-70144293D01*
X73663402Y-70087881D01*
X73663400Y-70087881D01*
X73658087Y-70086457D01*
X73430000Y-70066502D01*
X73201913Y-70086457D01*
X73196600Y-70087881D01*
X73196598Y-70087881D01*
X72986067Y-70144293D01*
X72986065Y-70144294D01*
X72980757Y-70145716D01*
X72975776Y-70148039D01*
X72975775Y-70148039D01*
X72778238Y-70240151D01*
X72778233Y-70240154D01*
X72773251Y-70242477D01*
X72668389Y-70315902D01*
X72590211Y-70370643D01*
X72590208Y-70370645D01*
X72585700Y-70373802D01*
X72423802Y-70535700D01*
X72292477Y-70723251D01*
X72290154Y-70728233D01*
X72290151Y-70728238D01*
X72274195Y-70762457D01*
X72227278Y-70815742D01*
X72159001Y-70835203D01*
X72091041Y-70814661D01*
X72045805Y-70762457D01*
X72029849Y-70728238D01*
X72029846Y-70728233D01*
X72027523Y-70723251D01*
X71896198Y-70535700D01*
X71734300Y-70373802D01*
X71729792Y-70370645D01*
X71729789Y-70370643D01*
X71651611Y-70315902D01*
X71546749Y-70242477D01*
X71541767Y-70240154D01*
X71541762Y-70240151D01*
X71344225Y-70148039D01*
X71344224Y-70148039D01*
X71339243Y-70145716D01*
X71333935Y-70144294D01*
X71333933Y-70144293D01*
X71123402Y-70087881D01*
X71123400Y-70087881D01*
X71118087Y-70086457D01*
X70890000Y-70066502D01*
X70661913Y-70086457D01*
X70656600Y-70087881D01*
X70656598Y-70087881D01*
X70446067Y-70144293D01*
X70446065Y-70144294D01*
X70440757Y-70145716D01*
X70435776Y-70148039D01*
X70435775Y-70148039D01*
X70238238Y-70240151D01*
X70238233Y-70240154D01*
X70233251Y-70242477D01*
X70128389Y-70315902D01*
X70050211Y-70370643D01*
X70050208Y-70370645D01*
X70045700Y-70373802D01*
X69883802Y-70535700D01*
X69752477Y-70723251D01*
X69750154Y-70728233D01*
X69750151Y-70728238D01*
X69734195Y-70762457D01*
X69687278Y-70815742D01*
X69619001Y-70835203D01*
X69551041Y-70814661D01*
X69505805Y-70762457D01*
X69489849Y-70728238D01*
X69489846Y-70728233D01*
X69487523Y-70723251D01*
X69356198Y-70535700D01*
X69194300Y-70373802D01*
X69189792Y-70370645D01*
X69189789Y-70370643D01*
X69111611Y-70315902D01*
X69006749Y-70242477D01*
X69001767Y-70240154D01*
X69001762Y-70240151D01*
X68804225Y-70148039D01*
X68804224Y-70148039D01*
X68799243Y-70145716D01*
X68793935Y-70144294D01*
X68793933Y-70144293D01*
X68583402Y-70087881D01*
X68583400Y-70087881D01*
X68578087Y-70086457D01*
X68350000Y-70066502D01*
X68121913Y-70086457D01*
X68116600Y-70087881D01*
X68116598Y-70087881D01*
X67906067Y-70144293D01*
X67906065Y-70144294D01*
X67900757Y-70145716D01*
X67895776Y-70148039D01*
X67895775Y-70148039D01*
X67698238Y-70240151D01*
X67698233Y-70240154D01*
X67693251Y-70242477D01*
X67588389Y-70315902D01*
X67510211Y-70370643D01*
X67510208Y-70370645D01*
X67505700Y-70373802D01*
X67343802Y-70535700D01*
X67212477Y-70723251D01*
X67210154Y-70728233D01*
X67210151Y-70728238D01*
X67194195Y-70762457D01*
X67147278Y-70815742D01*
X67079001Y-70835203D01*
X67011041Y-70814661D01*
X66965805Y-70762457D01*
X66949849Y-70728238D01*
X66949846Y-70728233D01*
X66947523Y-70723251D01*
X66816198Y-70535700D01*
X66654300Y-70373802D01*
X66649792Y-70370645D01*
X66649789Y-70370643D01*
X66571611Y-70315902D01*
X66466749Y-70242477D01*
X66461767Y-70240154D01*
X66461762Y-70240151D01*
X66264225Y-70148039D01*
X66264224Y-70148039D01*
X66259243Y-70145716D01*
X66253935Y-70144294D01*
X66253933Y-70144293D01*
X66043402Y-70087881D01*
X66043400Y-70087881D01*
X66038087Y-70086457D01*
X65810000Y-70066502D01*
X65581913Y-70086457D01*
X65576600Y-70087881D01*
X65576598Y-70087881D01*
X65366067Y-70144293D01*
X65366065Y-70144294D01*
X65360757Y-70145716D01*
X65355776Y-70148039D01*
X65355775Y-70148039D01*
X65158238Y-70240151D01*
X65158233Y-70240154D01*
X65153251Y-70242477D01*
X65048389Y-70315902D01*
X64970211Y-70370643D01*
X64970208Y-70370645D01*
X64965700Y-70373802D01*
X64803802Y-70535700D01*
X64672477Y-70723251D01*
X64670154Y-70728233D01*
X64670151Y-70728238D01*
X64654195Y-70762457D01*
X64607278Y-70815742D01*
X64539001Y-70835203D01*
X64471041Y-70814661D01*
X64425805Y-70762457D01*
X64409849Y-70728238D01*
X64409846Y-70728233D01*
X64407523Y-70723251D01*
X64276198Y-70535700D01*
X64114300Y-70373802D01*
X64109792Y-70370645D01*
X64109789Y-70370643D01*
X64031611Y-70315902D01*
X63926749Y-70242477D01*
X63921767Y-70240154D01*
X63921762Y-70240151D01*
X63724225Y-70148039D01*
X63724224Y-70148039D01*
X63719243Y-70145716D01*
X63713935Y-70144294D01*
X63713933Y-70144293D01*
X63503402Y-70087881D01*
X63503400Y-70087881D01*
X63498087Y-70086457D01*
X63270000Y-70066502D01*
X63041913Y-70086457D01*
X63036600Y-70087881D01*
X63036598Y-70087881D01*
X62826067Y-70144293D01*
X62826065Y-70144294D01*
X62820757Y-70145716D01*
X62815776Y-70148039D01*
X62815775Y-70148039D01*
X62618238Y-70240151D01*
X62618233Y-70240154D01*
X62613251Y-70242477D01*
X62508389Y-70315902D01*
X62430211Y-70370643D01*
X62430208Y-70370645D01*
X62425700Y-70373802D01*
X62263802Y-70535700D01*
X62132477Y-70723251D01*
X62130154Y-70728233D01*
X62130151Y-70728238D01*
X62114195Y-70762457D01*
X62067278Y-70815742D01*
X61999001Y-70835203D01*
X61931041Y-70814661D01*
X61885805Y-70762457D01*
X61869849Y-70728238D01*
X61869846Y-70728233D01*
X61867523Y-70723251D01*
X61736198Y-70535700D01*
X61574300Y-70373802D01*
X61569792Y-70370645D01*
X61569789Y-70370643D01*
X61491611Y-70315902D01*
X61386749Y-70242477D01*
X61381767Y-70240154D01*
X61381762Y-70240151D01*
X61184225Y-70148039D01*
X61184224Y-70148039D01*
X61179243Y-70145716D01*
X61173935Y-70144294D01*
X61173933Y-70144293D01*
X60963402Y-70087881D01*
X60963400Y-70087881D01*
X60958087Y-70086457D01*
X60730000Y-70066502D01*
X60501913Y-70086457D01*
X60496600Y-70087881D01*
X60496598Y-70087881D01*
X60286067Y-70144293D01*
X60286065Y-70144294D01*
X60280757Y-70145716D01*
X60275776Y-70148039D01*
X60275775Y-70148039D01*
X60078238Y-70240151D01*
X60078233Y-70240154D01*
X60073251Y-70242477D01*
X59968389Y-70315902D01*
X59890211Y-70370643D01*
X59890208Y-70370645D01*
X59885700Y-70373802D01*
X59723802Y-70535700D01*
X59592477Y-70723251D01*
X59590154Y-70728233D01*
X59590151Y-70728238D01*
X59574195Y-70762457D01*
X59527278Y-70815742D01*
X59459001Y-70835203D01*
X59391041Y-70814661D01*
X59345805Y-70762457D01*
X59329849Y-70728238D01*
X59329846Y-70728233D01*
X59327523Y-70723251D01*
X59196198Y-70535700D01*
X59034300Y-70373802D01*
X59029792Y-70370645D01*
X59029789Y-70370643D01*
X58951611Y-70315902D01*
X58846749Y-70242477D01*
X58841767Y-70240154D01*
X58841762Y-70240151D01*
X58644225Y-70148039D01*
X58644224Y-70148039D01*
X58639243Y-70145716D01*
X58633935Y-70144294D01*
X58633933Y-70144293D01*
X58423402Y-70087881D01*
X58423400Y-70087881D01*
X58418087Y-70086457D01*
X58190000Y-70066502D01*
X57961913Y-70086457D01*
X57956600Y-70087881D01*
X57956598Y-70087881D01*
X57746067Y-70144293D01*
X57746065Y-70144294D01*
X57740757Y-70145716D01*
X57735776Y-70148039D01*
X57735775Y-70148039D01*
X57538238Y-70240151D01*
X57538233Y-70240154D01*
X57533251Y-70242477D01*
X57428389Y-70315902D01*
X57350211Y-70370643D01*
X57350208Y-70370645D01*
X57345700Y-70373802D01*
X57183802Y-70535700D01*
X57052477Y-70723251D01*
X57050154Y-70728233D01*
X57050151Y-70728238D01*
X57034195Y-70762457D01*
X56987278Y-70815742D01*
X56919001Y-70835203D01*
X56851041Y-70814661D01*
X56805805Y-70762457D01*
X56789849Y-70728238D01*
X56789846Y-70728233D01*
X56787523Y-70723251D01*
X56656198Y-70535700D01*
X56494300Y-70373802D01*
X56489792Y-70370645D01*
X56489789Y-70370643D01*
X56411611Y-70315902D01*
X56306749Y-70242477D01*
X56301767Y-70240154D01*
X56301762Y-70240151D01*
X56104225Y-70148039D01*
X56104224Y-70148039D01*
X56099243Y-70145716D01*
X56093935Y-70144294D01*
X56093933Y-70144293D01*
X55883402Y-70087881D01*
X55883400Y-70087881D01*
X55878087Y-70086457D01*
X55650000Y-70066502D01*
X55421913Y-70086457D01*
X55416600Y-70087881D01*
X55416598Y-70087881D01*
X55206067Y-70144293D01*
X55206065Y-70144294D01*
X55200757Y-70145716D01*
X55195776Y-70148039D01*
X55195775Y-70148039D01*
X54998238Y-70240151D01*
X54998233Y-70240154D01*
X54993251Y-70242477D01*
X54888389Y-70315902D01*
X54810211Y-70370643D01*
X54810208Y-70370645D01*
X54805700Y-70373802D01*
X54643802Y-70535700D01*
X54512477Y-70723251D01*
X54510154Y-70728233D01*
X54510151Y-70728238D01*
X54494195Y-70762457D01*
X54447278Y-70815742D01*
X54379001Y-70835203D01*
X54311041Y-70814661D01*
X54265805Y-70762457D01*
X54249849Y-70728238D01*
X54249846Y-70728233D01*
X54247523Y-70723251D01*
X54116198Y-70535700D01*
X53954300Y-70373802D01*
X53949792Y-70370645D01*
X53949789Y-70370643D01*
X53871611Y-70315902D01*
X53766749Y-70242477D01*
X53761767Y-70240154D01*
X53761762Y-70240151D01*
X53564225Y-70148039D01*
X53564224Y-70148039D01*
X53559243Y-70145716D01*
X53553935Y-70144294D01*
X53553933Y-70144293D01*
X53343402Y-70087881D01*
X53343400Y-70087881D01*
X53338087Y-70086457D01*
X53110000Y-70066502D01*
X52881913Y-70086457D01*
X52876600Y-70087881D01*
X52876598Y-70087881D01*
X52666067Y-70144293D01*
X52666065Y-70144294D01*
X52660757Y-70145716D01*
X52655776Y-70148039D01*
X52655775Y-70148039D01*
X52458238Y-70240151D01*
X52458233Y-70240154D01*
X52453251Y-70242477D01*
X52348389Y-70315902D01*
X52270211Y-70370643D01*
X52270208Y-70370645D01*
X52265700Y-70373802D01*
X52103802Y-70535700D01*
X51972477Y-70723251D01*
X51970154Y-70728233D01*
X51970151Y-70728238D01*
X51954195Y-70762457D01*
X51907278Y-70815742D01*
X51839001Y-70835203D01*
X51771041Y-70814661D01*
X51725805Y-70762457D01*
X51709849Y-70728238D01*
X51709846Y-70728233D01*
X51707523Y-70723251D01*
X51576198Y-70535700D01*
X51414300Y-70373802D01*
X51409792Y-70370645D01*
X51409789Y-70370643D01*
X51331611Y-70315902D01*
X51226749Y-70242477D01*
X51221767Y-70240154D01*
X51221762Y-70240151D01*
X51024225Y-70148039D01*
X51024224Y-70148039D01*
X51019243Y-70145716D01*
X51013935Y-70144294D01*
X51013933Y-70144293D01*
X50803402Y-70087881D01*
X50803400Y-70087881D01*
X50798087Y-70086457D01*
X50570000Y-70066502D01*
X50341913Y-70086457D01*
X50336600Y-70087881D01*
X50336598Y-70087881D01*
X50126067Y-70144293D01*
X50126065Y-70144294D01*
X50120757Y-70145716D01*
X50115776Y-70148039D01*
X50115775Y-70148039D01*
X49918238Y-70240151D01*
X49918233Y-70240154D01*
X49913251Y-70242477D01*
X49808389Y-70315902D01*
X49730211Y-70370643D01*
X49730208Y-70370645D01*
X49725700Y-70373802D01*
X49563802Y-70535700D01*
X49432477Y-70723251D01*
X49430154Y-70728233D01*
X49430151Y-70728238D01*
X49414195Y-70762457D01*
X49367278Y-70815742D01*
X49299001Y-70835203D01*
X49231041Y-70814661D01*
X49185805Y-70762457D01*
X49169849Y-70728238D01*
X49169846Y-70728233D01*
X49167523Y-70723251D01*
X49036198Y-70535700D01*
X48874300Y-70373802D01*
X48869792Y-70370645D01*
X48869789Y-70370643D01*
X48791611Y-70315902D01*
X48686749Y-70242477D01*
X48681767Y-70240154D01*
X48681762Y-70240151D01*
X48484225Y-70148039D01*
X48484224Y-70148039D01*
X48479243Y-70145716D01*
X48473935Y-70144294D01*
X48473933Y-70144293D01*
X48263402Y-70087881D01*
X48263400Y-70087881D01*
X48258087Y-70086457D01*
X48030000Y-70066502D01*
X47801913Y-70086457D01*
X47796600Y-70087881D01*
X47796598Y-70087881D01*
X47586067Y-70144293D01*
X47586065Y-70144294D01*
X47580757Y-70145716D01*
X47575776Y-70148039D01*
X47575775Y-70148039D01*
X47378238Y-70240151D01*
X47378233Y-70240154D01*
X47373251Y-70242477D01*
X47268389Y-70315902D01*
X47190211Y-70370643D01*
X47190208Y-70370645D01*
X47185700Y-70373802D01*
X47023802Y-70535700D01*
X46892477Y-70723251D01*
X46890154Y-70728233D01*
X46890151Y-70728238D01*
X46874195Y-70762457D01*
X46795716Y-70930757D01*
X46736457Y-71151913D01*
X46716502Y-71380000D01*
X46736457Y-71608087D01*
X46795716Y-71829243D01*
X46798039Y-71834224D01*
X46798039Y-71834225D01*
X46890151Y-72031762D01*
X46890154Y-72031767D01*
X46892477Y-72036749D01*
X47023802Y-72224300D01*
X47185700Y-72386198D01*
X47190208Y-72389355D01*
X47190211Y-72389357D01*
X47204227Y-72399171D01*
X47373251Y-72517523D01*
X47378233Y-72519846D01*
X47378238Y-72519849D01*
X47575775Y-72611961D01*
X47580757Y-72614284D01*
X47586065Y-72615706D01*
X47586067Y-72615707D01*
X47796598Y-72672119D01*
X47796600Y-72672119D01*
X47801913Y-72673543D01*
X48030000Y-72693498D01*
X48258087Y-72673543D01*
X48263400Y-72672119D01*
X48263402Y-72672119D01*
X48473933Y-72615707D01*
X48473935Y-72615706D01*
X48479243Y-72614284D01*
X48484225Y-72611961D01*
X48681762Y-72519849D01*
X48681767Y-72519846D01*
X48686749Y-72517523D01*
X48855773Y-72399171D01*
X48869789Y-72389357D01*
X48869792Y-72389355D01*
X48874300Y-72386198D01*
X49036198Y-72224300D01*
X49167523Y-72036749D01*
X49169846Y-72031767D01*
X49169849Y-72031762D01*
X49185805Y-71997543D01*
X49232722Y-71944258D01*
X49300999Y-71924797D01*
X49368959Y-71945339D01*
X49414195Y-71997543D01*
X49430151Y-72031762D01*
X49430154Y-72031767D01*
X49432477Y-72036749D01*
X49563802Y-72224300D01*
X49725700Y-72386198D01*
X49730208Y-72389355D01*
X49730211Y-72389357D01*
X49744227Y-72399171D01*
X49913251Y-72517523D01*
X49918233Y-72519846D01*
X49918238Y-72519849D01*
X50115775Y-72611961D01*
X50120757Y-72614284D01*
X50126065Y-72615706D01*
X50126067Y-72615707D01*
X50336598Y-72672119D01*
X50336600Y-72672119D01*
X50341913Y-72673543D01*
X50570000Y-72693498D01*
X50798087Y-72673543D01*
X50803400Y-72672119D01*
X50803402Y-72672119D01*
X51013933Y-72615707D01*
X51013935Y-72615706D01*
X51019243Y-72614284D01*
X51024225Y-72611961D01*
X51221762Y-72519849D01*
X51221767Y-72519846D01*
X51226749Y-72517523D01*
X51395773Y-72399171D01*
X51409789Y-72389357D01*
X51409792Y-72389355D01*
X51414300Y-72386198D01*
X51576198Y-72224300D01*
X51707523Y-72036749D01*
X51709846Y-72031767D01*
X51709849Y-72031762D01*
X51725805Y-71997543D01*
X51772722Y-71944258D01*
X51840999Y-71924797D01*
X51908959Y-71945339D01*
X51954195Y-71997543D01*
X51970151Y-72031762D01*
X51970154Y-72031767D01*
X51972477Y-72036749D01*
X52103802Y-72224300D01*
X52265700Y-72386198D01*
X52270208Y-72389355D01*
X52270211Y-72389357D01*
X52284227Y-72399171D01*
X52453251Y-72517523D01*
X52458233Y-72519846D01*
X52458238Y-72519849D01*
X52655775Y-72611961D01*
X52660757Y-72614284D01*
X52666065Y-72615706D01*
X52666067Y-72615707D01*
X52876598Y-72672119D01*
X52876600Y-72672119D01*
X52881913Y-72673543D01*
X53110000Y-72693498D01*
X53338087Y-72673543D01*
X53343400Y-72672119D01*
X53343402Y-72672119D01*
X53553933Y-72615707D01*
X53553935Y-72615706D01*
X53559243Y-72614284D01*
X53564225Y-72611961D01*
X53761762Y-72519849D01*
X53761767Y-72519846D01*
X53766749Y-72517523D01*
X53935773Y-72399171D01*
X53949789Y-72389357D01*
X53949792Y-72389355D01*
X53954300Y-72386198D01*
X54116198Y-72224300D01*
X54247523Y-72036749D01*
X54249846Y-72031767D01*
X54249849Y-72031762D01*
X54265805Y-71997543D01*
X54312722Y-71944258D01*
X54380999Y-71924797D01*
X54448959Y-71945339D01*
X54494195Y-71997543D01*
X54510151Y-72031762D01*
X54510154Y-72031767D01*
X54512477Y-72036749D01*
X54643802Y-72224300D01*
X54805700Y-72386198D01*
X54810208Y-72389355D01*
X54810211Y-72389357D01*
X54824227Y-72399171D01*
X54993251Y-72517523D01*
X54998233Y-72519846D01*
X54998238Y-72519849D01*
X55195775Y-72611961D01*
X55200757Y-72614284D01*
X55206065Y-72615706D01*
X55206067Y-72615707D01*
X55416598Y-72672119D01*
X55416600Y-72672119D01*
X55421913Y-72673543D01*
X55650000Y-72693498D01*
X55655475Y-72693019D01*
X55655486Y-72693019D01*
X55667430Y-72691974D01*
X55737035Y-72705962D01*
X55788027Y-72755361D01*
X55804218Y-72824487D01*
X55780466Y-72891393D01*
X55767507Y-72906589D01*
X53842747Y-74831348D01*
X53834461Y-74838888D01*
X53827982Y-74843000D01*
X53822557Y-74848777D01*
X53781357Y-74892651D01*
X53778602Y-74895493D01*
X53758865Y-74915230D01*
X53756385Y-74918427D01*
X53748682Y-74927447D01*
X53718414Y-74959679D01*
X53714595Y-74966625D01*
X53714593Y-74966628D01*
X53708652Y-74977434D01*
X53697801Y-74993953D01*
X53685386Y-75009959D01*
X53682241Y-75017228D01*
X53682238Y-75017232D01*
X53667826Y-75050537D01*
X53662609Y-75061187D01*
X53641305Y-75099940D01*
X53639334Y-75107615D01*
X53639334Y-75107616D01*
X53636267Y-75119562D01*
X53629863Y-75138266D01*
X53621819Y-75156855D01*
X53620580Y-75164678D01*
X53620577Y-75164688D01*
X53614901Y-75200524D01*
X53612495Y-75212144D01*
X53601500Y-75254970D01*
X53601500Y-75275224D01*
X53599949Y-75294934D01*
X53596780Y-75314943D01*
X53597526Y-75322835D01*
X53600941Y-75358961D01*
X53601500Y-75370819D01*
X53601500Y-85232832D01*
X53581498Y-85300953D01*
X53527842Y-85347446D01*
X53457568Y-85357550D01*
X53442895Y-85354540D01*
X53338087Y-85326457D01*
X53110000Y-85306502D01*
X52881913Y-85326457D01*
X52876600Y-85327881D01*
X52876598Y-85327881D01*
X52666067Y-85384293D01*
X52666065Y-85384294D01*
X52660757Y-85385716D01*
X52655776Y-85388039D01*
X52655775Y-85388039D01*
X52458238Y-85480151D01*
X52458233Y-85480154D01*
X52453251Y-85482477D01*
X52381114Y-85532988D01*
X52270211Y-85610643D01*
X52270208Y-85610645D01*
X52265700Y-85613802D01*
X52103802Y-85775700D01*
X51972477Y-85963251D01*
X51970154Y-85968233D01*
X51970151Y-85968238D01*
X51954195Y-86002457D01*
X51907278Y-86055742D01*
X51839001Y-86075203D01*
X51771041Y-86054661D01*
X51725805Y-86002457D01*
X51709849Y-85968238D01*
X51709846Y-85968233D01*
X51707523Y-85963251D01*
X51576198Y-85775700D01*
X51414300Y-85613802D01*
X51409792Y-85610645D01*
X51409789Y-85610643D01*
X51298886Y-85532988D01*
X51226749Y-85482477D01*
X51221767Y-85480154D01*
X51221762Y-85480151D01*
X51024225Y-85388039D01*
X51024224Y-85388039D01*
X51019243Y-85385716D01*
X51013935Y-85384294D01*
X51013933Y-85384293D01*
X50803402Y-85327881D01*
X50803400Y-85327881D01*
X50798087Y-85326457D01*
X50570000Y-85306502D01*
X50341913Y-85326457D01*
X50336600Y-85327881D01*
X50336598Y-85327881D01*
X50126067Y-85384293D01*
X50126065Y-85384294D01*
X50120757Y-85385716D01*
X50115776Y-85388039D01*
X50115775Y-85388039D01*
X49918238Y-85480151D01*
X49918233Y-85480154D01*
X49913251Y-85482477D01*
X49841114Y-85532988D01*
X49730211Y-85610643D01*
X49730208Y-85610645D01*
X49725700Y-85613802D01*
X49563802Y-85775700D01*
X49432477Y-85963251D01*
X49430154Y-85968233D01*
X49430151Y-85968238D01*
X49414195Y-86002457D01*
X49367278Y-86055742D01*
X49299001Y-86075203D01*
X49231041Y-86054661D01*
X49185805Y-86002457D01*
X49169849Y-85968238D01*
X49169846Y-85968233D01*
X49167523Y-85963251D01*
X49036198Y-85775700D01*
X48874300Y-85613802D01*
X48869792Y-85610645D01*
X48869789Y-85610643D01*
X48758886Y-85532988D01*
X48686749Y-85482477D01*
X48681767Y-85480154D01*
X48681762Y-85480151D01*
X48484225Y-85388039D01*
X48484224Y-85388039D01*
X48479243Y-85385716D01*
X48473935Y-85384294D01*
X48473933Y-85384293D01*
X48263402Y-85327881D01*
X48263400Y-85327881D01*
X48258087Y-85326457D01*
X48030000Y-85306502D01*
X47801913Y-85326457D01*
X47796600Y-85327881D01*
X47796598Y-85327881D01*
X47586067Y-85384293D01*
X47586065Y-85384294D01*
X47580757Y-85385716D01*
X47575776Y-85388039D01*
X47575775Y-85388039D01*
X47378238Y-85480151D01*
X47378233Y-85480154D01*
X47373251Y-85482477D01*
X47301114Y-85532988D01*
X47190211Y-85610643D01*
X47190208Y-85610645D01*
X47185700Y-85613802D01*
X47023802Y-85775700D01*
X46892477Y-85963251D01*
X46890154Y-85968233D01*
X46890151Y-85968238D01*
X46890034Y-85968489D01*
X46795716Y-86170757D01*
X46794294Y-86176065D01*
X46794293Y-86176067D01*
X46737881Y-86386598D01*
X46736457Y-86391913D01*
X46716502Y-86620000D01*
X46736457Y-86848087D01*
X46737881Y-86853400D01*
X46737881Y-86853402D01*
X46775025Y-86992022D01*
X46795716Y-87069243D01*
X46798039Y-87074224D01*
X46798039Y-87074225D01*
X46890151Y-87271762D01*
X46890154Y-87271767D01*
X46892477Y-87276749D01*
X47023802Y-87464300D01*
X47185700Y-87626198D01*
X47190208Y-87629355D01*
X47190211Y-87629357D01*
X47244031Y-87667042D01*
X47373251Y-87757523D01*
X47378233Y-87759846D01*
X47378238Y-87759849D01*
X47491566Y-87812694D01*
X47580757Y-87854284D01*
X47586065Y-87855706D01*
X47586067Y-87855707D01*
X47796598Y-87912119D01*
X47796600Y-87912119D01*
X47801913Y-87913543D01*
X48030000Y-87933498D01*
X48258087Y-87913543D01*
X48263400Y-87912119D01*
X48263402Y-87912119D01*
X48473933Y-87855707D01*
X48473935Y-87855706D01*
X48479243Y-87854284D01*
X48568434Y-87812694D01*
X48681762Y-87759849D01*
X48681767Y-87759846D01*
X48686749Y-87757523D01*
X48815969Y-87667042D01*
X48869789Y-87629357D01*
X48869792Y-87629355D01*
X48874300Y-87626198D01*
X49036198Y-87464300D01*
X49167523Y-87276749D01*
X49169846Y-87271767D01*
X49169849Y-87271762D01*
X49185805Y-87237543D01*
X49232722Y-87184258D01*
X49300999Y-87164797D01*
X49368959Y-87185339D01*
X49414195Y-87237543D01*
X49430151Y-87271762D01*
X49430154Y-87271767D01*
X49432477Y-87276749D01*
X49563802Y-87464300D01*
X49725700Y-87626198D01*
X49730208Y-87629355D01*
X49730211Y-87629357D01*
X49784031Y-87667042D01*
X49913251Y-87757523D01*
X49918233Y-87759846D01*
X49918238Y-87759849D01*
X50031566Y-87812694D01*
X50120757Y-87854284D01*
X50126065Y-87855706D01*
X50126067Y-87855707D01*
X50336598Y-87912119D01*
X50336600Y-87912119D01*
X50341913Y-87913543D01*
X50570000Y-87933498D01*
X50798087Y-87913543D01*
X50803400Y-87912119D01*
X50803402Y-87912119D01*
X51013933Y-87855707D01*
X51013935Y-87855706D01*
X51019243Y-87854284D01*
X51108434Y-87812694D01*
X51221762Y-87759849D01*
X51221767Y-87759846D01*
X51226749Y-87757523D01*
X51355969Y-87667042D01*
X51409789Y-87629357D01*
X51409792Y-87629355D01*
X51414300Y-87626198D01*
X51576198Y-87464300D01*
X51707523Y-87276749D01*
X51709846Y-87271767D01*
X51709849Y-87271762D01*
X51725805Y-87237543D01*
X51772722Y-87184258D01*
X51840999Y-87164797D01*
X51908959Y-87185339D01*
X51954195Y-87237543D01*
X51970151Y-87271762D01*
X51970154Y-87271767D01*
X51972477Y-87276749D01*
X52103802Y-87464300D01*
X52265700Y-87626198D01*
X52270208Y-87629355D01*
X52270211Y-87629357D01*
X52324031Y-87667042D01*
X52453251Y-87757523D01*
X52458233Y-87759846D01*
X52458238Y-87759849D01*
X52571566Y-87812694D01*
X52660757Y-87854284D01*
X52666065Y-87855706D01*
X52666067Y-87855707D01*
X52876598Y-87912119D01*
X52876600Y-87912119D01*
X52881913Y-87913543D01*
X53110000Y-87933498D01*
X53338087Y-87913543D01*
X53442890Y-87885461D01*
X53513865Y-87887151D01*
X53572661Y-87926945D01*
X53600609Y-87992209D01*
X53601500Y-88007168D01*
X53601500Y-111301248D01*
X53600973Y-111312431D01*
X53599298Y-111319924D01*
X53599547Y-111327850D01*
X53599547Y-111327851D01*
X53601438Y-111388001D01*
X53601500Y-111391960D01*
X53601500Y-111419871D01*
X53601997Y-111423805D01*
X53601997Y-111423806D01*
X53602005Y-111423871D01*
X53602938Y-111435708D01*
X53604327Y-111479904D01*
X53609978Y-111499354D01*
X53613987Y-111518715D01*
X53616526Y-111538812D01*
X53619445Y-111546183D01*
X53619445Y-111546185D01*
X53632804Y-111579927D01*
X53636649Y-111591157D01*
X53648982Y-111633608D01*
X53653015Y-111640427D01*
X53653017Y-111640432D01*
X53659293Y-111651043D01*
X53667988Y-111668791D01*
X53675448Y-111687632D01*
X53680110Y-111694048D01*
X53680110Y-111694049D01*
X53701436Y-111723402D01*
X53707952Y-111733322D01*
X53730458Y-111771377D01*
X53744779Y-111785698D01*
X53757619Y-111800731D01*
X53769528Y-111817122D01*
X53775634Y-111822173D01*
X53803605Y-111845313D01*
X53812384Y-111853303D01*
X56297143Y-114338062D01*
X56331169Y-114400374D01*
X56326104Y-114471189D01*
X56283557Y-114528025D01*
X56273413Y-114534876D01*
X56194442Y-114582797D01*
X56104856Y-114637159D01*
X55928166Y-114790483D01*
X55779835Y-114971386D01*
X55777199Y-114976016D01*
X55777196Y-114976021D01*
X55758699Y-115008516D01*
X55707616Y-115057822D01*
X55637985Y-115071683D01*
X55571915Y-115045699D01*
X55544677Y-115016550D01*
X55474172Y-114911825D01*
X55458202Y-114888104D01*
X55296724Y-114718832D01*
X55109035Y-114579187D01*
X55104284Y-114576771D01*
X55104280Y-114576769D01*
X54905256Y-114475580D01*
X54905255Y-114475580D01*
X54900500Y-114473162D01*
X54677083Y-114403790D01*
X54671796Y-114403089D01*
X54671795Y-114403089D01*
X54450455Y-114373752D01*
X54450451Y-114373752D01*
X54445171Y-114373052D01*
X54439842Y-114373252D01*
X54439840Y-114373252D01*
X54344346Y-114376837D01*
X54211396Y-114381828D01*
X54127411Y-114399450D01*
X53987668Y-114428771D01*
X53987665Y-114428772D01*
X53982441Y-114429868D01*
X53764854Y-114515797D01*
X53760290Y-114518566D01*
X53760291Y-114518566D01*
X53569417Y-114634391D01*
X53569414Y-114634393D01*
X53564856Y-114637159D01*
X53388166Y-114790483D01*
X53239835Y-114971386D01*
X53237199Y-114976016D01*
X53237196Y-114976021D01*
X53218699Y-115008516D01*
X53167616Y-115057822D01*
X53097985Y-115071683D01*
X53031915Y-115045699D01*
X53004677Y-115016550D01*
X52934172Y-114911825D01*
X52918202Y-114888104D01*
X52756724Y-114718832D01*
X52569035Y-114579187D01*
X52564284Y-114576771D01*
X52564280Y-114576769D01*
X52365256Y-114475580D01*
X52365255Y-114475580D01*
X52360500Y-114473162D01*
X52137083Y-114403790D01*
X52131796Y-114403089D01*
X52131795Y-114403089D01*
X51910455Y-114373752D01*
X51910451Y-114373752D01*
X51905171Y-114373052D01*
X51899842Y-114373252D01*
X51899840Y-114373252D01*
X51804346Y-114376837D01*
X51671396Y-114381828D01*
X51587411Y-114399450D01*
X51447668Y-114428771D01*
X51447665Y-114428772D01*
X51442441Y-114429868D01*
X51224854Y-114515797D01*
X51220290Y-114518566D01*
X51220291Y-114518566D01*
X51029417Y-114634391D01*
X51029414Y-114634393D01*
X51024856Y-114637159D01*
X50848166Y-114790483D01*
X50699835Y-114971386D01*
X50650356Y-115058307D01*
X50608893Y-115131148D01*
X50584104Y-115174695D01*
X50504284Y-115394596D01*
X50462656Y-115624803D01*
X50461500Y-115649316D01*
X50461500Y-116263738D01*
X50476295Y-116438102D01*
X50535067Y-116664540D01*
X50537259Y-116669406D01*
X50537260Y-116669409D01*
X50603864Y-116817264D01*
X50631150Y-116877837D01*
X50634134Y-116882270D01*
X50634135Y-116882271D01*
X50647226Y-116901715D01*
X50761798Y-117071896D01*
X50923276Y-117241168D01*
X51110965Y-117380813D01*
X51115716Y-117383229D01*
X51115720Y-117383231D01*
X51229308Y-117440982D01*
X51319500Y-117486838D01*
X51542917Y-117556210D01*
X51548204Y-117556911D01*
X51548205Y-117556911D01*
X51769545Y-117586248D01*
X51769549Y-117586248D01*
X51774829Y-117586948D01*
X51780158Y-117586748D01*
X51780160Y-117586748D01*
X51891716Y-117582560D01*
X52008604Y-117578172D01*
X52111019Y-117556683D01*
X52232332Y-117531229D01*
X52232335Y-117531228D01*
X52237559Y-117530132D01*
X52455146Y-117444203D01*
X52564860Y-117377627D01*
X52650583Y-117325609D01*
X52650586Y-117325607D01*
X52655144Y-117322841D01*
X52831834Y-117169517D01*
X52980165Y-116988614D01*
X52982801Y-116983984D01*
X52982804Y-116983979D01*
X53001301Y-116951484D01*
X53052384Y-116902178D01*
X53122015Y-116888317D01*
X53188085Y-116914301D01*
X53215323Y-116943450D01*
X53301798Y-117071896D01*
X53463276Y-117241168D01*
X53650965Y-117380813D01*
X53655716Y-117383229D01*
X53655720Y-117383231D01*
X53769308Y-117440982D01*
X53859500Y-117486838D01*
X54082917Y-117556210D01*
X54088204Y-117556911D01*
X54088205Y-117556911D01*
X54309545Y-117586248D01*
X54309549Y-117586248D01*
X54314829Y-117586948D01*
X54320158Y-117586748D01*
X54320160Y-117586748D01*
X54431716Y-117582560D01*
X54548604Y-117578172D01*
X54651019Y-117556683D01*
X54772332Y-117531229D01*
X54772335Y-117531228D01*
X54777559Y-117530132D01*
X54995146Y-117444203D01*
X55104860Y-117377627D01*
X55190583Y-117325609D01*
X55190586Y-117325607D01*
X55195144Y-117322841D01*
X55371834Y-117169517D01*
X55520165Y-116988614D01*
X55522801Y-116983984D01*
X55522804Y-116983979D01*
X55541301Y-116951484D01*
X55592384Y-116902178D01*
X55662015Y-116888317D01*
X55728085Y-116914301D01*
X55755323Y-116943450D01*
X55841798Y-117071896D01*
X56003276Y-117241168D01*
X56190965Y-117380813D01*
X56195716Y-117383229D01*
X56195720Y-117383231D01*
X56309308Y-117440982D01*
X56399500Y-117486838D01*
X56622917Y-117556210D01*
X56628204Y-117556911D01*
X56628205Y-117556911D01*
X56849545Y-117586248D01*
X56849549Y-117586248D01*
X56854829Y-117586948D01*
X56860158Y-117586748D01*
X56860160Y-117586748D01*
X56971716Y-117582560D01*
X57088604Y-117578172D01*
X57191019Y-117556683D01*
X57312332Y-117531229D01*
X57312335Y-117531228D01*
X57317559Y-117530132D01*
X57320078Y-117529137D01*
X57390281Y-117528722D01*
X57450234Y-117566751D01*
X57480109Y-117631156D01*
X57481500Y-117649826D01*
X57481500Y-120536233D01*
X57480973Y-120547416D01*
X57479298Y-120554909D01*
X57479547Y-120562835D01*
X57479547Y-120562836D01*
X57481438Y-120622986D01*
X57481500Y-120626945D01*
X57481500Y-120654856D01*
X57481997Y-120658790D01*
X57481997Y-120658791D01*
X57482005Y-120658856D01*
X57482938Y-120670693D01*
X57484327Y-120714889D01*
X57489978Y-120734339D01*
X57493987Y-120753700D01*
X57496526Y-120773797D01*
X57499445Y-120781168D01*
X57499445Y-120781170D01*
X57512804Y-120814912D01*
X57516649Y-120826142D01*
X57528982Y-120868593D01*
X57533015Y-120875412D01*
X57533017Y-120875417D01*
X57539293Y-120886028D01*
X57547988Y-120903776D01*
X57555448Y-120922617D01*
X57560110Y-120929033D01*
X57560110Y-120929034D01*
X57581436Y-120958387D01*
X57587952Y-120968307D01*
X57601256Y-120990802D01*
X57610458Y-121006362D01*
X57624779Y-121020683D01*
X57637619Y-121035716D01*
X57649528Y-121052107D01*
X57655634Y-121057158D01*
X57683605Y-121080298D01*
X57692384Y-121088288D01*
X62880501Y-126276405D01*
X62914527Y-126338717D01*
X62909462Y-126409532D01*
X62866915Y-126466368D01*
X62800395Y-126491179D01*
X62791406Y-126491500D01*
X62349600Y-126491500D01*
X62346354Y-126491837D01*
X62346350Y-126491837D01*
X62250692Y-126501762D01*
X62250688Y-126501763D01*
X62243834Y-126502474D01*
X62237298Y-126504655D01*
X62237296Y-126504655D01*
X62198220Y-126517692D01*
X62076054Y-126558450D01*
X61925652Y-126651522D01*
X61800695Y-126776697D01*
X61796855Y-126782927D01*
X61796854Y-126782928D01*
X61766161Y-126832722D01*
X61707885Y-126927262D01*
X61652203Y-127095139D01*
X61641500Y-127199600D01*
X61641500Y-128800400D01*
X61652474Y-128906166D01*
X61654655Y-128912702D01*
X61654655Y-128912704D01*
X61690033Y-129018744D01*
X61708450Y-129073946D01*
X61801522Y-129224348D01*
X61926697Y-129349305D01*
X61932927Y-129353145D01*
X61932928Y-129353146D01*
X62070090Y-129437694D01*
X62077262Y-129442115D01*
X62106561Y-129451833D01*
X62238611Y-129495632D01*
X62238613Y-129495632D01*
X62245139Y-129497797D01*
X62251975Y-129498497D01*
X62251978Y-129498498D01*
X62287663Y-129502154D01*
X62349600Y-129508500D01*
X63650400Y-129508500D01*
X63653646Y-129508163D01*
X63653650Y-129508163D01*
X63749308Y-129498238D01*
X63749312Y-129498237D01*
X63756166Y-129497526D01*
X63762702Y-129495345D01*
X63762704Y-129495345D01*
X63914181Y-129444808D01*
X63923946Y-129441550D01*
X64074348Y-129348478D01*
X64199305Y-129223303D01*
X64289081Y-129077660D01*
X64341852Y-129030168D01*
X64411924Y-129018744D01*
X64477048Y-129047018D01*
X64487510Y-129056805D01*
X64528683Y-129099965D01*
X64596576Y-129171135D01*
X64600854Y-129174318D01*
X64658317Y-129217072D01*
X64781542Y-129308754D01*
X64786293Y-129311170D01*
X64786297Y-129311172D01*
X64849481Y-129343296D01*
X64987051Y-129413240D01*
X64992145Y-129414822D01*
X64992148Y-129414823D01*
X65192020Y-129476885D01*
X65207227Y-129481607D01*
X65212516Y-129482308D01*
X65430489Y-129511198D01*
X65430494Y-129511198D01*
X65435774Y-129511898D01*
X65441103Y-129511698D01*
X65441105Y-129511698D01*
X65550966Y-129507573D01*
X65666158Y-129503249D01*
X65688802Y-129498498D01*
X65886572Y-129457002D01*
X65891791Y-129455907D01*
X65896750Y-129453949D01*
X65896752Y-129453948D01*
X66101256Y-129373185D01*
X66101258Y-129373184D01*
X66106221Y-129371224D01*
X66142343Y-129349305D01*
X66298757Y-129254390D01*
X66298756Y-129254390D01*
X66303317Y-129251623D01*
X66376642Y-129187995D01*
X66473412Y-129104023D01*
X66473414Y-129104021D01*
X66477445Y-129100523D01*
X66544500Y-129018744D01*
X66620240Y-128926373D01*
X66620244Y-128926367D01*
X66623624Y-128922245D01*
X66737675Y-128721886D01*
X66816337Y-128505175D01*
X66817287Y-128499923D01*
X66856623Y-128282392D01*
X66856624Y-128282385D01*
X66857361Y-128278308D01*
X66858500Y-128254156D01*
X66858500Y-127792110D01*
X66843920Y-127620280D01*
X66842582Y-127615125D01*
X66842581Y-127615119D01*
X66787343Y-127402297D01*
X66787342Y-127402293D01*
X66786001Y-127397128D01*
X66691312Y-127186925D01*
X66562559Y-126995681D01*
X66503918Y-126934209D01*
X66491347Y-126921032D01*
X66403424Y-126828865D01*
X66218458Y-126691246D01*
X66213707Y-126688830D01*
X66213703Y-126688828D01*
X66091731Y-126626815D01*
X66012949Y-126586760D01*
X66007855Y-126585178D01*
X66007852Y-126585177D01*
X65797871Y-126519976D01*
X65792773Y-126518393D01*
X65787484Y-126517692D01*
X65569511Y-126488802D01*
X65569506Y-126488802D01*
X65564226Y-126488102D01*
X65558897Y-126488302D01*
X65558895Y-126488302D01*
X65449034Y-126492426D01*
X65333842Y-126496751D01*
X65328623Y-126497846D01*
X65306566Y-126502474D01*
X65108209Y-126544093D01*
X65103249Y-126546052D01*
X65064526Y-126561344D01*
X64993820Y-126567761D01*
X64929151Y-126533246D01*
X58785405Y-120389500D01*
X58751379Y-120327188D01*
X58748500Y-120300405D01*
X58748500Y-117594579D01*
X58768502Y-117526458D01*
X58822158Y-117479965D01*
X58892432Y-117469861D01*
X58931603Y-117482262D01*
X58934921Y-117483949D01*
X58944792Y-117487956D01*
X59157929Y-117554138D01*
X59168309Y-117556420D01*
X59188043Y-117559036D01*
X59202207Y-117556840D01*
X59206000Y-117543655D01*
X59206000Y-117541627D01*
X59714000Y-117541627D01*
X59717973Y-117555158D01*
X59728580Y-117556683D01*
X59852188Y-117530748D01*
X59862384Y-117527688D01*
X60069952Y-117445716D01*
X60079489Y-117440982D01*
X60270285Y-117325204D01*
X60278878Y-117318938D01*
X60447441Y-117172667D01*
X60454861Y-117165036D01*
X60596368Y-116992458D01*
X60602393Y-116983691D01*
X60620989Y-116951022D01*
X60672071Y-116901715D01*
X60741702Y-116887854D01*
X60807773Y-116913837D01*
X60835011Y-116942987D01*
X60921798Y-117071896D01*
X61083276Y-117241168D01*
X61270965Y-117380813D01*
X61275716Y-117383229D01*
X61275720Y-117383231D01*
X61389308Y-117440982D01*
X61479500Y-117486838D01*
X61702917Y-117556210D01*
X61708204Y-117556911D01*
X61708205Y-117556911D01*
X61929545Y-117586248D01*
X61929549Y-117586248D01*
X61934829Y-117586948D01*
X61940158Y-117586748D01*
X61940160Y-117586748D01*
X62051716Y-117582560D01*
X62168604Y-117578172D01*
X62271019Y-117556683D01*
X62392332Y-117531229D01*
X62392335Y-117531228D01*
X62397559Y-117530132D01*
X62615146Y-117444203D01*
X62724860Y-117377627D01*
X62810583Y-117325609D01*
X62810586Y-117325607D01*
X62815144Y-117322841D01*
X62991834Y-117169517D01*
X63140165Y-116988614D01*
X63142801Y-116983984D01*
X63142804Y-116983979D01*
X63161301Y-116951484D01*
X63212384Y-116902178D01*
X63282015Y-116888317D01*
X63348085Y-116914301D01*
X63375323Y-116943450D01*
X63461798Y-117071896D01*
X63623276Y-117241168D01*
X63810965Y-117380813D01*
X63815716Y-117383229D01*
X63815720Y-117383231D01*
X63929308Y-117440982D01*
X64019500Y-117486838D01*
X64242917Y-117556210D01*
X64248204Y-117556911D01*
X64248205Y-117556911D01*
X64469545Y-117586248D01*
X64469549Y-117586248D01*
X64474829Y-117586948D01*
X64480158Y-117586748D01*
X64480160Y-117586748D01*
X64591716Y-117582560D01*
X64708604Y-117578172D01*
X64811019Y-117556683D01*
X64932332Y-117531229D01*
X64932335Y-117531228D01*
X64937559Y-117530132D01*
X65155146Y-117444203D01*
X65264860Y-117377627D01*
X65350583Y-117325609D01*
X65350586Y-117325607D01*
X65355144Y-117322841D01*
X65531834Y-117169517D01*
X65680165Y-116988614D01*
X65682801Y-116983984D01*
X65682804Y-116983979D01*
X65701301Y-116951484D01*
X65752384Y-116902178D01*
X65822015Y-116888317D01*
X65888085Y-116914301D01*
X65915323Y-116943450D01*
X66001798Y-117071896D01*
X66163276Y-117241168D01*
X66350965Y-117380813D01*
X66355716Y-117383229D01*
X66355720Y-117383231D01*
X66469308Y-117440982D01*
X66559500Y-117486838D01*
X66782917Y-117556210D01*
X66788204Y-117556911D01*
X66788205Y-117556911D01*
X67009545Y-117586248D01*
X67009549Y-117586248D01*
X67014829Y-117586948D01*
X67020158Y-117586748D01*
X67020160Y-117586748D01*
X67131716Y-117582560D01*
X67248604Y-117578172D01*
X67351019Y-117556683D01*
X67472332Y-117531229D01*
X67472335Y-117531228D01*
X67477559Y-117530132D01*
X67695146Y-117444203D01*
X67804860Y-117377627D01*
X67890583Y-117325609D01*
X67890586Y-117325607D01*
X67895144Y-117322841D01*
X68071834Y-117169517D01*
X68220165Y-116988614D01*
X68222801Y-116983984D01*
X68222804Y-116983979D01*
X68241301Y-116951484D01*
X68292384Y-116902178D01*
X68362015Y-116888317D01*
X68428085Y-116914301D01*
X68455323Y-116943450D01*
X68541798Y-117071896D01*
X68703276Y-117241168D01*
X68890965Y-117380813D01*
X68895716Y-117383229D01*
X68895720Y-117383231D01*
X69009308Y-117440982D01*
X69099500Y-117486838D01*
X69322917Y-117556210D01*
X69328204Y-117556911D01*
X69328205Y-117556911D01*
X69549545Y-117586248D01*
X69549549Y-117586248D01*
X69554829Y-117586948D01*
X69560158Y-117586748D01*
X69560160Y-117586748D01*
X69671716Y-117582560D01*
X69788604Y-117578172D01*
X69891019Y-117556683D01*
X70012332Y-117531229D01*
X70012335Y-117531228D01*
X70017559Y-117530132D01*
X70235146Y-117444203D01*
X70344860Y-117377627D01*
X70430583Y-117325609D01*
X70430586Y-117325607D01*
X70435144Y-117322841D01*
X70611834Y-117169517D01*
X70642408Y-117132229D01*
X70701067Y-117092236D01*
X70772038Y-117090305D01*
X70832786Y-117127050D01*
X70847733Y-117149390D01*
X70848450Y-117148946D01*
X70941522Y-117299348D01*
X71066697Y-117424305D01*
X71072927Y-117428145D01*
X71072928Y-117428146D01*
X71210090Y-117512694D01*
X71217262Y-117517115D01*
X71259815Y-117531229D01*
X71378611Y-117570632D01*
X71378613Y-117570632D01*
X71385139Y-117572797D01*
X71391975Y-117573497D01*
X71391978Y-117573498D01*
X71435031Y-117577909D01*
X71489600Y-117583500D01*
X72830400Y-117583500D01*
X72833646Y-117583163D01*
X72833650Y-117583163D01*
X72929308Y-117573238D01*
X72929312Y-117573237D01*
X72936166Y-117572526D01*
X72942702Y-117570345D01*
X72942704Y-117570345D01*
X73074806Y-117526272D01*
X73103946Y-117516550D01*
X73254348Y-117423478D01*
X73379305Y-117298303D01*
X73456530Y-117173021D01*
X73468275Y-117153968D01*
X73468276Y-117153966D01*
X73472115Y-117147738D01*
X73527797Y-116979861D01*
X73530705Y-116951484D01*
X73535804Y-116901715D01*
X73538500Y-116875400D01*
X73538500Y-115084600D01*
X73535387Y-115054594D01*
X73528238Y-114985692D01*
X73528237Y-114985688D01*
X73527526Y-114978834D01*
X73523665Y-114967259D01*
X73473868Y-114818002D01*
X73471550Y-114811054D01*
X73378478Y-114660652D01*
X73253303Y-114535695D01*
X73217840Y-114513835D01*
X73108968Y-114446725D01*
X73108966Y-114446724D01*
X73102738Y-114442885D01*
X73022722Y-114416345D01*
X72941389Y-114389368D01*
X72941387Y-114389368D01*
X72934861Y-114387203D01*
X72928025Y-114386503D01*
X72928022Y-114386502D01*
X72880449Y-114381628D01*
X72830400Y-114376500D01*
X71489600Y-114376500D01*
X71486354Y-114376837D01*
X71486350Y-114376837D01*
X71390692Y-114386762D01*
X71390688Y-114386763D01*
X71383834Y-114387474D01*
X71377298Y-114389655D01*
X71377296Y-114389655D01*
X71260052Y-114428771D01*
X71216054Y-114443450D01*
X71065652Y-114536522D01*
X70940695Y-114661697D01*
X70847885Y-114812262D01*
X70845738Y-114810938D01*
X70806688Y-114855290D01*
X70738411Y-114874752D01*
X70670451Y-114854212D01*
X70648239Y-114835728D01*
X70540410Y-114722694D01*
X70540398Y-114722684D01*
X70536724Y-114718832D01*
X70349035Y-114579187D01*
X70344284Y-114576771D01*
X70344280Y-114576769D01*
X70145256Y-114475580D01*
X70145255Y-114475580D01*
X70140500Y-114473162D01*
X69917083Y-114403790D01*
X69911796Y-114403089D01*
X69911795Y-114403089D01*
X69690455Y-114373752D01*
X69690451Y-114373752D01*
X69685171Y-114373052D01*
X69679842Y-114373252D01*
X69679840Y-114373252D01*
X69584346Y-114376837D01*
X69451396Y-114381828D01*
X69367411Y-114399450D01*
X69227668Y-114428771D01*
X69227665Y-114428772D01*
X69222441Y-114429868D01*
X69004854Y-114515797D01*
X69000290Y-114518566D01*
X69000291Y-114518566D01*
X68809417Y-114634391D01*
X68809414Y-114634393D01*
X68804856Y-114637159D01*
X68628166Y-114790483D01*
X68479835Y-114971386D01*
X68477199Y-114976016D01*
X68477196Y-114976021D01*
X68458699Y-115008516D01*
X68407616Y-115057822D01*
X68337985Y-115071683D01*
X68271915Y-115045699D01*
X68244677Y-115016550D01*
X68174172Y-114911825D01*
X68158202Y-114888104D01*
X67996724Y-114718832D01*
X67809035Y-114579187D01*
X67804284Y-114576771D01*
X67804280Y-114576769D01*
X67605256Y-114475580D01*
X67605255Y-114475580D01*
X67600500Y-114473162D01*
X67377083Y-114403790D01*
X67371796Y-114403089D01*
X67371795Y-114403089D01*
X67150455Y-114373752D01*
X67150451Y-114373752D01*
X67145171Y-114373052D01*
X67139842Y-114373252D01*
X67139840Y-114373252D01*
X67044346Y-114376837D01*
X66911396Y-114381828D01*
X66827411Y-114399450D01*
X66687668Y-114428771D01*
X66687665Y-114428772D01*
X66682441Y-114429868D01*
X66464854Y-114515797D01*
X66460290Y-114518566D01*
X66460291Y-114518566D01*
X66269417Y-114634391D01*
X66269414Y-114634393D01*
X66264856Y-114637159D01*
X66088166Y-114790483D01*
X65939835Y-114971386D01*
X65937199Y-114976016D01*
X65937196Y-114976021D01*
X65918699Y-115008516D01*
X65867616Y-115057822D01*
X65797985Y-115071683D01*
X65731915Y-115045699D01*
X65704677Y-115016550D01*
X65634172Y-114911825D01*
X65618202Y-114888104D01*
X65456724Y-114718832D01*
X65269035Y-114579187D01*
X65264284Y-114576771D01*
X65264280Y-114576769D01*
X65065256Y-114475580D01*
X65065255Y-114475580D01*
X65060500Y-114473162D01*
X64837083Y-114403790D01*
X64831796Y-114403089D01*
X64831795Y-114403089D01*
X64610455Y-114373752D01*
X64610451Y-114373752D01*
X64605171Y-114373052D01*
X64599842Y-114373252D01*
X64599840Y-114373252D01*
X64504346Y-114376837D01*
X64371396Y-114381828D01*
X64287411Y-114399450D01*
X64147668Y-114428771D01*
X64147665Y-114428772D01*
X64142441Y-114429868D01*
X63924854Y-114515797D01*
X63920290Y-114518566D01*
X63920291Y-114518566D01*
X63729417Y-114634391D01*
X63729414Y-114634393D01*
X63724856Y-114637159D01*
X63548166Y-114790483D01*
X63399835Y-114971386D01*
X63397199Y-114976016D01*
X63397196Y-114976021D01*
X63378699Y-115008516D01*
X63327616Y-115057822D01*
X63257985Y-115071683D01*
X63191915Y-115045699D01*
X63164677Y-115016550D01*
X63094172Y-114911825D01*
X63078202Y-114888104D01*
X62916724Y-114718832D01*
X62729035Y-114579187D01*
X62724284Y-114576771D01*
X62724280Y-114576769D01*
X62525256Y-114475580D01*
X62525255Y-114475580D01*
X62520500Y-114473162D01*
X62297083Y-114403790D01*
X62291796Y-114403089D01*
X62291795Y-114403089D01*
X62070455Y-114373752D01*
X62070451Y-114373752D01*
X62065171Y-114373052D01*
X62059842Y-114373252D01*
X62059840Y-114373252D01*
X61964346Y-114376837D01*
X61831396Y-114381828D01*
X61747411Y-114399450D01*
X61607668Y-114428771D01*
X61607665Y-114428772D01*
X61602441Y-114429868D01*
X61384854Y-114515797D01*
X61380290Y-114518566D01*
X61380291Y-114518566D01*
X61189417Y-114634391D01*
X61189414Y-114634393D01*
X61184856Y-114637159D01*
X61008166Y-114790483D01*
X60859835Y-114971386D01*
X60857197Y-114976021D01*
X60857194Y-114976025D01*
X60838423Y-115009001D01*
X60787341Y-115058307D01*
X60717711Y-115072169D01*
X60651640Y-115046186D01*
X60624401Y-115017036D01*
X60540790Y-114892845D01*
X60534129Y-114884559D01*
X60380076Y-114723070D01*
X60372108Y-114716021D01*
X60193048Y-114582797D01*
X60184018Y-114577198D01*
X59985069Y-114476047D01*
X59975208Y-114472044D01*
X59762071Y-114405862D01*
X59751691Y-114403580D01*
X59731957Y-114400964D01*
X59717793Y-114403160D01*
X59714000Y-114416345D01*
X59714000Y-117541627D01*
X59206000Y-117541627D01*
X59206000Y-114418373D01*
X59202027Y-114404842D01*
X59191420Y-114403317D01*
X59067812Y-114429252D01*
X59057616Y-114432312D01*
X58850048Y-114514284D01*
X58840511Y-114519018D01*
X58649715Y-114634796D01*
X58641122Y-114641062D01*
X58596380Y-114679887D01*
X58531820Y-114709426D01*
X58461539Y-114699372D01*
X58424705Y-114673816D01*
X54905405Y-111154515D01*
X54871379Y-111092203D01*
X54868500Y-111065420D01*
X54868500Y-99910849D01*
X55487004Y-99910849D01*
X55490337Y-100052300D01*
X55499268Y-100431241D01*
X55500654Y-100490069D01*
X55553668Y-101067020D01*
X55645801Y-101639029D01*
X55776626Y-102203446D01*
X55945537Y-102757659D01*
X55946298Y-102759657D01*
X55946300Y-102759663D01*
X55952390Y-102775652D01*
X56151752Y-103299100D01*
X56152655Y-103301058D01*
X56152658Y-103301066D01*
X56265528Y-103545898D01*
X56394316Y-103825261D01*
X56672105Y-104333705D01*
X56983832Y-104822079D01*
X57328055Y-105288119D01*
X57329451Y-105289762D01*
X57329454Y-105289766D01*
X57518000Y-105511698D01*
X57703178Y-105729667D01*
X57704675Y-105731204D01*
X57704678Y-105731207D01*
X58105971Y-106143146D01*
X58105980Y-106143155D01*
X58107465Y-106144679D01*
X58539042Y-106531232D01*
X58540722Y-106532542D01*
X58994225Y-106886221D01*
X58994237Y-106886230D01*
X58995912Y-106887536D01*
X59475958Y-107211941D01*
X59477804Y-107213013D01*
X59975109Y-107501871D01*
X59975118Y-107501876D01*
X59976957Y-107502944D01*
X60496588Y-107759198D01*
X60752769Y-107864527D01*
X61030474Y-107978706D01*
X61030484Y-107978710D01*
X61032445Y-107979516D01*
X61297780Y-108068038D01*
X61580019Y-108162200D01*
X61580026Y-108162202D01*
X61582046Y-108162876D01*
X62142846Y-108308431D01*
X62144943Y-108308825D01*
X62144946Y-108308826D01*
X62354427Y-108348219D01*
X62712247Y-108415506D01*
X62714354Y-108415755D01*
X62714358Y-108415756D01*
X62923894Y-108440556D01*
X63287612Y-108483605D01*
X63289758Y-108483712D01*
X63289760Y-108483712D01*
X63864143Y-108512307D01*
X63864149Y-108512307D01*
X63866276Y-108512413D01*
X63868405Y-108512374D01*
X63868407Y-108512374D01*
X64014164Y-108509703D01*
X64445560Y-108501796D01*
X64825116Y-108468923D01*
X65020635Y-108451989D01*
X65020639Y-108451989D01*
X65022781Y-108451803D01*
X65595264Y-108362666D01*
X65837330Y-108307892D01*
X66158274Y-108235270D01*
X66158280Y-108235268D01*
X66160359Y-108234798D01*
X66715448Y-108068791D01*
X66717445Y-108068042D01*
X66717458Y-108068038D01*
X67074739Y-107934100D01*
X67257961Y-107865414D01*
X67489770Y-107760017D01*
X67783442Y-107626493D01*
X67783456Y-107626486D01*
X67785385Y-107625609D01*
X67787256Y-107624600D01*
X67787265Y-107624595D01*
X68293381Y-107351509D01*
X68293380Y-107351509D01*
X68295277Y-107350486D01*
X68785276Y-107041320D01*
X68787001Y-107040060D01*
X68787011Y-107040053D01*
X69251381Y-106700807D01*
X69251389Y-106700801D01*
X69253112Y-106699542D01*
X69696619Y-106326736D01*
X69698147Y-106325263D01*
X69698157Y-106325254D01*
X70112193Y-105926121D01*
X70113742Y-105924628D01*
X70502549Y-105495080D01*
X70513171Y-105481607D01*
X70859916Y-105041763D01*
X70859919Y-105041759D01*
X70861241Y-105040082D01*
X71082139Y-104716865D01*
X71186939Y-104563522D01*
X71186946Y-104563511D01*
X71188155Y-104561742D01*
X71481777Y-104062273D01*
X71740748Y-103543991D01*
X71741565Y-103542033D01*
X71741571Y-103542020D01*
X71963045Y-103011268D01*
X71963048Y-103011260D01*
X71963868Y-103009295D01*
X72106479Y-102589178D01*
X72149412Y-102462701D01*
X72149413Y-102462697D01*
X72150104Y-102460662D01*
X72298593Y-101900632D01*
X72347669Y-101646978D01*
X72408238Y-101333920D01*
X72408240Y-101333910D01*
X72408648Y-101331799D01*
X72479759Y-100756798D01*
X72511596Y-100178293D01*
X72513463Y-100000000D01*
X72497003Y-99516556D01*
X72493821Y-99423085D01*
X72493820Y-99423072D01*
X72493748Y-99420954D01*
X72434695Y-98844590D01*
X72336577Y-98273578D01*
X72336073Y-98271503D01*
X72336070Y-98271488D01*
X72200355Y-97712644D01*
X72200354Y-97712640D01*
X72199849Y-97710561D01*
X72173391Y-97626900D01*
X72025786Y-97160182D01*
X72025143Y-97158148D01*
X71813270Y-96618896D01*
X71565210Y-96095304D01*
X71564162Y-96093433D01*
X71564156Y-96093421D01*
X71283162Y-95591671D01*
X71282112Y-95589796D01*
X71231298Y-95511995D01*
X70966455Y-95106502D01*
X70966452Y-95106498D01*
X70965287Y-95104714D01*
X70616203Y-94642304D01*
X70407936Y-94402297D01*
X70237876Y-94206320D01*
X70237873Y-94206317D01*
X70236477Y-94204708D01*
X69827866Y-93793953D01*
X69392265Y-93411940D01*
X69320569Y-93357223D01*
X68933396Y-93061743D01*
X68931689Y-93060440D01*
X68448272Y-92741080D01*
X67944254Y-92455339D01*
X67857225Y-92413548D01*
X67423899Y-92205467D01*
X67423893Y-92205464D01*
X67421968Y-92204540D01*
X67419988Y-92203750D01*
X67419981Y-92203747D01*
X66885811Y-91990635D01*
X66885807Y-91990634D01*
X66883833Y-91989846D01*
X66332342Y-91812251D01*
X66330279Y-91811738D01*
X66330270Y-91811736D01*
X65772133Y-91673095D01*
X65770048Y-91672577D01*
X65199557Y-91571470D01*
X65197445Y-91571242D01*
X65197442Y-91571242D01*
X64625649Y-91509630D01*
X64625638Y-91509629D01*
X64623511Y-91509400D01*
X64044576Y-91486654D01*
X64042457Y-91486715D01*
X64042447Y-91486715D01*
X63467580Y-91503274D01*
X63467574Y-91503274D01*
X63465435Y-91503336D01*
X63463303Y-91503543D01*
X63463290Y-91503544D01*
X63077569Y-91541025D01*
X62888770Y-91559371D01*
X62886651Y-91559724D01*
X62886641Y-91559725D01*
X62319354Y-91654148D01*
X62319350Y-91654149D01*
X62317252Y-91654498D01*
X61753527Y-91788276D01*
X61751470Y-91788915D01*
X61751469Y-91788915D01*
X61202263Y-91959448D01*
X61202255Y-91959451D01*
X61200206Y-91960087D01*
X60659852Y-92169134D01*
X60134969Y-92414449D01*
X59627986Y-92694896D01*
X59141251Y-93009177D01*
X58677020Y-93355835D01*
X58237441Y-93733265D01*
X58235915Y-93734768D01*
X58235912Y-93734770D01*
X58064403Y-93903606D01*
X57824552Y-94139719D01*
X57765525Y-94206320D01*
X57591834Y-94402297D01*
X57440264Y-94573314D01*
X57086357Y-95032043D01*
X57085158Y-95033838D01*
X57085154Y-95033843D01*
X56766869Y-95510191D01*
X56764470Y-95513781D01*
X56476094Y-96016297D01*
X56222565Y-96537263D01*
X56005056Y-97074266D01*
X55824575Y-97624820D01*
X55681959Y-98186374D01*
X55577867Y-98756328D01*
X55577624Y-98758476D01*
X55577624Y-98758477D01*
X55552209Y-98983287D01*
X55512781Y-99332041D01*
X55487004Y-99910849D01*
X54868500Y-99910849D01*
X54868500Y-87897131D01*
X54888502Y-87829010D01*
X54942158Y-87782517D01*
X55012432Y-87772413D01*
X55047749Y-87782936D01*
X55200757Y-87854284D01*
X55206065Y-87855706D01*
X55206067Y-87855707D01*
X55416598Y-87912119D01*
X55416600Y-87912119D01*
X55421913Y-87913543D01*
X55650000Y-87933498D01*
X55878087Y-87913543D01*
X55883400Y-87912119D01*
X55883402Y-87912119D01*
X56093933Y-87855707D01*
X56093935Y-87855706D01*
X56099243Y-87854284D01*
X56188434Y-87812694D01*
X56301762Y-87759849D01*
X56301767Y-87759846D01*
X56306749Y-87757523D01*
X56435969Y-87667042D01*
X56489789Y-87629357D01*
X56489792Y-87629355D01*
X56494300Y-87626198D01*
X56656198Y-87464300D01*
X56787523Y-87276749D01*
X56789846Y-87271767D01*
X56789849Y-87271762D01*
X56805805Y-87237543D01*
X56852722Y-87184258D01*
X56920999Y-87164797D01*
X56988959Y-87185339D01*
X57034195Y-87237543D01*
X57050151Y-87271762D01*
X57050154Y-87271767D01*
X57052477Y-87276749D01*
X57183802Y-87464300D01*
X57345700Y-87626198D01*
X57350208Y-87629355D01*
X57350211Y-87629357D01*
X57404031Y-87667042D01*
X57533251Y-87757523D01*
X57538233Y-87759846D01*
X57538238Y-87759849D01*
X57651566Y-87812694D01*
X57740757Y-87854284D01*
X57746065Y-87855706D01*
X57746067Y-87855707D01*
X57956598Y-87912119D01*
X57956600Y-87912119D01*
X57961913Y-87913543D01*
X58190000Y-87933498D01*
X58418087Y-87913543D01*
X58423400Y-87912119D01*
X58423402Y-87912119D01*
X58633933Y-87855707D01*
X58633935Y-87855706D01*
X58639243Y-87854284D01*
X58728434Y-87812694D01*
X58841762Y-87759849D01*
X58841767Y-87759846D01*
X58846749Y-87757523D01*
X58975969Y-87667042D01*
X59029789Y-87629357D01*
X59029792Y-87629355D01*
X59034300Y-87626198D01*
X59196198Y-87464300D01*
X59327523Y-87276749D01*
X59329846Y-87271767D01*
X59329849Y-87271762D01*
X59345805Y-87237543D01*
X59392722Y-87184258D01*
X59460999Y-87164797D01*
X59528959Y-87185339D01*
X59574195Y-87237543D01*
X59590151Y-87271762D01*
X59590154Y-87271767D01*
X59592477Y-87276749D01*
X59723802Y-87464300D01*
X59885700Y-87626198D01*
X59890208Y-87629355D01*
X59890211Y-87629357D01*
X59944031Y-87667042D01*
X60073251Y-87757523D01*
X60078233Y-87759846D01*
X60078238Y-87759849D01*
X60191566Y-87812694D01*
X60280757Y-87854284D01*
X60286065Y-87855706D01*
X60286067Y-87855707D01*
X60496598Y-87912119D01*
X60496600Y-87912119D01*
X60501913Y-87913543D01*
X60730000Y-87933498D01*
X60958087Y-87913543D01*
X60963400Y-87912119D01*
X60963402Y-87912119D01*
X61173933Y-87855707D01*
X61173935Y-87855706D01*
X61179243Y-87854284D01*
X61268434Y-87812694D01*
X61381762Y-87759849D01*
X61381767Y-87759846D01*
X61386749Y-87757523D01*
X61515969Y-87667042D01*
X61569789Y-87629357D01*
X61569792Y-87629355D01*
X61574300Y-87626198D01*
X61736198Y-87464300D01*
X61867523Y-87276749D01*
X61869846Y-87271767D01*
X61869849Y-87271762D01*
X61885805Y-87237543D01*
X61932722Y-87184258D01*
X62000999Y-87164797D01*
X62068959Y-87185339D01*
X62114195Y-87237543D01*
X62130151Y-87271762D01*
X62130154Y-87271767D01*
X62132477Y-87276749D01*
X62263802Y-87464300D01*
X62425700Y-87626198D01*
X62430208Y-87629355D01*
X62430211Y-87629357D01*
X62484031Y-87667042D01*
X62613251Y-87757523D01*
X62618233Y-87759846D01*
X62618238Y-87759849D01*
X62731566Y-87812694D01*
X62820757Y-87854284D01*
X62826065Y-87855706D01*
X62826067Y-87855707D01*
X63036598Y-87912119D01*
X63036600Y-87912119D01*
X63041913Y-87913543D01*
X63270000Y-87933498D01*
X63498087Y-87913543D01*
X63503400Y-87912119D01*
X63503402Y-87912119D01*
X63713933Y-87855707D01*
X63713935Y-87855706D01*
X63719243Y-87854284D01*
X63808434Y-87812694D01*
X63921762Y-87759849D01*
X63921767Y-87759846D01*
X63926749Y-87757523D01*
X64055969Y-87667042D01*
X64109789Y-87629357D01*
X64109792Y-87629355D01*
X64114300Y-87626198D01*
X64276198Y-87464300D01*
X64407523Y-87276749D01*
X64409846Y-87271767D01*
X64409849Y-87271762D01*
X64425805Y-87237543D01*
X64472722Y-87184258D01*
X64540999Y-87164797D01*
X64608959Y-87185339D01*
X64654195Y-87237543D01*
X64670151Y-87271762D01*
X64670154Y-87271767D01*
X64672477Y-87276749D01*
X64803802Y-87464300D01*
X64965700Y-87626198D01*
X64970208Y-87629355D01*
X64970211Y-87629357D01*
X65024031Y-87667042D01*
X65153251Y-87757523D01*
X65158233Y-87759846D01*
X65158238Y-87759849D01*
X65271566Y-87812694D01*
X65360757Y-87854284D01*
X65366065Y-87855706D01*
X65366067Y-87855707D01*
X65576598Y-87912119D01*
X65576600Y-87912119D01*
X65581913Y-87913543D01*
X65810000Y-87933498D01*
X66038087Y-87913543D01*
X66043400Y-87912119D01*
X66043402Y-87912119D01*
X66253933Y-87855707D01*
X66253935Y-87855706D01*
X66259243Y-87854284D01*
X66348434Y-87812694D01*
X66461762Y-87759849D01*
X66461767Y-87759846D01*
X66466749Y-87757523D01*
X66540243Y-87706062D01*
X67628493Y-87706062D01*
X67637789Y-87718077D01*
X67688994Y-87753931D01*
X67698489Y-87759414D01*
X67895947Y-87851490D01*
X67906239Y-87855236D01*
X68116688Y-87911625D01*
X68127481Y-87913528D01*
X68344525Y-87932517D01*
X68355475Y-87932517D01*
X68572519Y-87913528D01*
X68583312Y-87911625D01*
X68793761Y-87855236D01*
X68804053Y-87851490D01*
X69001511Y-87759414D01*
X69011006Y-87753931D01*
X69063048Y-87717491D01*
X69071424Y-87707012D01*
X69064356Y-87693566D01*
X68362812Y-86992022D01*
X68348868Y-86984408D01*
X68347035Y-86984539D01*
X68340420Y-86988790D01*
X67634923Y-87694287D01*
X67628493Y-87706062D01*
X66540243Y-87706062D01*
X66595969Y-87667042D01*
X66649789Y-87629357D01*
X66649792Y-87629355D01*
X66654300Y-87626198D01*
X66816198Y-87464300D01*
X66947523Y-87276749D01*
X66949846Y-87271767D01*
X66949849Y-87271762D01*
X66966081Y-87236951D01*
X67012998Y-87183666D01*
X67081275Y-87164205D01*
X67149235Y-87184747D01*
X67194471Y-87236951D01*
X67210586Y-87271511D01*
X67216069Y-87281006D01*
X67252509Y-87333048D01*
X67262988Y-87341424D01*
X67276434Y-87334356D01*
X67977978Y-86632812D01*
X67985592Y-86618868D01*
X67985461Y-86617035D01*
X67981210Y-86610420D01*
X67275713Y-85904923D01*
X67263938Y-85898493D01*
X67251923Y-85907789D01*
X67216069Y-85958994D01*
X67210586Y-85968489D01*
X67194471Y-86003049D01*
X67147554Y-86056334D01*
X67079277Y-86075795D01*
X67011317Y-86055253D01*
X66966081Y-86003049D01*
X66949849Y-85968238D01*
X66949846Y-85968233D01*
X66947523Y-85963251D01*
X66816198Y-85775700D01*
X66654300Y-85613802D01*
X66649792Y-85610645D01*
X66649789Y-85610643D01*
X66538886Y-85532988D01*
X67628576Y-85532988D01*
X67635644Y-85546434D01*
X68337188Y-86247978D01*
X68351132Y-86255592D01*
X68352965Y-86255461D01*
X68359580Y-86251210D01*
X69065077Y-85545713D01*
X69071507Y-85533938D01*
X69062211Y-85521923D01*
X69011006Y-85486069D01*
X69001511Y-85480586D01*
X68804053Y-85388510D01*
X68793761Y-85384764D01*
X68583312Y-85328375D01*
X68572519Y-85326472D01*
X68355475Y-85307483D01*
X68344525Y-85307483D01*
X68127481Y-85326472D01*
X68116688Y-85328375D01*
X67906239Y-85384764D01*
X67895947Y-85388510D01*
X67698489Y-85480586D01*
X67688994Y-85486069D01*
X67636952Y-85522509D01*
X67628576Y-85532988D01*
X66538886Y-85532988D01*
X66466749Y-85482477D01*
X66461767Y-85480154D01*
X66461762Y-85480151D01*
X66264225Y-85388039D01*
X66264224Y-85388039D01*
X66259243Y-85385716D01*
X66253935Y-85384294D01*
X66253933Y-85384293D01*
X66043402Y-85327881D01*
X66043400Y-85327881D01*
X66038087Y-85326457D01*
X65810000Y-85306502D01*
X65581913Y-85326457D01*
X65576600Y-85327881D01*
X65576598Y-85327881D01*
X65366067Y-85384293D01*
X65366065Y-85384294D01*
X65360757Y-85385716D01*
X65355776Y-85388039D01*
X65355775Y-85388039D01*
X65158238Y-85480151D01*
X65158233Y-85480154D01*
X65153251Y-85482477D01*
X65081114Y-85532988D01*
X64970211Y-85610643D01*
X64970208Y-85610645D01*
X64965700Y-85613802D01*
X64803802Y-85775700D01*
X64672477Y-85963251D01*
X64670154Y-85968233D01*
X64670151Y-85968238D01*
X64654195Y-86002457D01*
X64607278Y-86055742D01*
X64539001Y-86075203D01*
X64471041Y-86054661D01*
X64425805Y-86002457D01*
X64409849Y-85968238D01*
X64409846Y-85968233D01*
X64407523Y-85963251D01*
X64276198Y-85775700D01*
X64114300Y-85613802D01*
X64109792Y-85610645D01*
X64109789Y-85610643D01*
X63998886Y-85532988D01*
X63926749Y-85482477D01*
X63921767Y-85480154D01*
X63921762Y-85480151D01*
X63724225Y-85388039D01*
X63724224Y-85388039D01*
X63719243Y-85385716D01*
X63713935Y-85384294D01*
X63713933Y-85384293D01*
X63503402Y-85327881D01*
X63503400Y-85327881D01*
X63498087Y-85326457D01*
X63270000Y-85306502D01*
X63041913Y-85326457D01*
X63036600Y-85327881D01*
X63036598Y-85327881D01*
X62826067Y-85384293D01*
X62826065Y-85384294D01*
X62820757Y-85385716D01*
X62815776Y-85388039D01*
X62815775Y-85388039D01*
X62618238Y-85480151D01*
X62618233Y-85480154D01*
X62613251Y-85482477D01*
X62541114Y-85532988D01*
X62430211Y-85610643D01*
X62430208Y-85610645D01*
X62425700Y-85613802D01*
X62263802Y-85775700D01*
X62132477Y-85963251D01*
X62130154Y-85968233D01*
X62130151Y-85968238D01*
X62114195Y-86002457D01*
X62067278Y-86055742D01*
X61999001Y-86075203D01*
X61931041Y-86054661D01*
X61885805Y-86002457D01*
X61869849Y-85968238D01*
X61869846Y-85968233D01*
X61867523Y-85963251D01*
X61736198Y-85775700D01*
X61574300Y-85613802D01*
X61569792Y-85610645D01*
X61569789Y-85610643D01*
X61458886Y-85532988D01*
X61386749Y-85482477D01*
X61381767Y-85480154D01*
X61381762Y-85480151D01*
X61184225Y-85388039D01*
X61184224Y-85388039D01*
X61179243Y-85385716D01*
X61173935Y-85384294D01*
X61173933Y-85384293D01*
X60963402Y-85327881D01*
X60963400Y-85327881D01*
X60958087Y-85326457D01*
X60730000Y-85306502D01*
X60501913Y-85326457D01*
X60496600Y-85327881D01*
X60496598Y-85327881D01*
X60286067Y-85384293D01*
X60286065Y-85384294D01*
X60280757Y-85385716D01*
X60275776Y-85388039D01*
X60275775Y-85388039D01*
X60078238Y-85480151D01*
X60078233Y-85480154D01*
X60073251Y-85482477D01*
X60001114Y-85532988D01*
X59890211Y-85610643D01*
X59890208Y-85610645D01*
X59885700Y-85613802D01*
X59723802Y-85775700D01*
X59592477Y-85963251D01*
X59590154Y-85968233D01*
X59590151Y-85968238D01*
X59574195Y-86002457D01*
X59527278Y-86055742D01*
X59459001Y-86075203D01*
X59391041Y-86054661D01*
X59345805Y-86002457D01*
X59329849Y-85968238D01*
X59329846Y-85968233D01*
X59327523Y-85963251D01*
X59196198Y-85775700D01*
X59034300Y-85613802D01*
X59029792Y-85610645D01*
X59029789Y-85610643D01*
X58918886Y-85532988D01*
X58846749Y-85482477D01*
X58841767Y-85480154D01*
X58841762Y-85480151D01*
X58644225Y-85388039D01*
X58644224Y-85388039D01*
X58639243Y-85385716D01*
X58633935Y-85384294D01*
X58633933Y-85384293D01*
X58423402Y-85327881D01*
X58423400Y-85327881D01*
X58418087Y-85326457D01*
X58190000Y-85306502D01*
X57961913Y-85326457D01*
X57956600Y-85327881D01*
X57956598Y-85327881D01*
X57746067Y-85384293D01*
X57746065Y-85384294D01*
X57740757Y-85385716D01*
X57735776Y-85388039D01*
X57735775Y-85388039D01*
X57538238Y-85480151D01*
X57538233Y-85480154D01*
X57533251Y-85482477D01*
X57461114Y-85532988D01*
X57350211Y-85610643D01*
X57350208Y-85610645D01*
X57345700Y-85613802D01*
X57183802Y-85775700D01*
X57052477Y-85963251D01*
X57050154Y-85968233D01*
X57050151Y-85968238D01*
X57034195Y-86002457D01*
X56987278Y-86055742D01*
X56919001Y-86075203D01*
X56851041Y-86054661D01*
X56805805Y-86002457D01*
X56789849Y-85968238D01*
X56789846Y-85968233D01*
X56787523Y-85963251D01*
X56656198Y-85775700D01*
X56494300Y-85613802D01*
X56489792Y-85610645D01*
X56489789Y-85610643D01*
X56378886Y-85532988D01*
X56306749Y-85482477D01*
X56301767Y-85480154D01*
X56301762Y-85480151D01*
X56104225Y-85388039D01*
X56104224Y-85388039D01*
X56099243Y-85385716D01*
X56093935Y-85384294D01*
X56093933Y-85384293D01*
X55883402Y-85327881D01*
X55883400Y-85327881D01*
X55878087Y-85326457D01*
X55650000Y-85306502D01*
X55421913Y-85326457D01*
X55416600Y-85327881D01*
X55416598Y-85327881D01*
X55206067Y-85384293D01*
X55206065Y-85384294D01*
X55200757Y-85385716D01*
X55195776Y-85388039D01*
X55195775Y-85388039D01*
X55047750Y-85457064D01*
X54977558Y-85467725D01*
X54912745Y-85438745D01*
X54873889Y-85379325D01*
X54868500Y-85342869D01*
X54868500Y-75649594D01*
X54888502Y-75581473D01*
X54905405Y-75560499D01*
X57776752Y-72689152D01*
X57839064Y-72655126D01*
X57898459Y-72656541D01*
X57956591Y-72672118D01*
X57956602Y-72672120D01*
X57961913Y-72673543D01*
X58190000Y-72693498D01*
X58418087Y-72673543D01*
X58423400Y-72672119D01*
X58423402Y-72672119D01*
X58633933Y-72615707D01*
X58633935Y-72615706D01*
X58639243Y-72614284D01*
X58644225Y-72611961D01*
X58841762Y-72519849D01*
X58841767Y-72519846D01*
X58846749Y-72517523D01*
X59015773Y-72399171D01*
X59029789Y-72389357D01*
X59029792Y-72389355D01*
X59034300Y-72386198D01*
X59196198Y-72224300D01*
X59327523Y-72036749D01*
X59329846Y-72031767D01*
X59329849Y-72031762D01*
X59345805Y-71997543D01*
X59392722Y-71944258D01*
X59460999Y-71924797D01*
X59528959Y-71945339D01*
X59574195Y-71997543D01*
X59590151Y-72031762D01*
X59590154Y-72031767D01*
X59592477Y-72036749D01*
X59723802Y-72224300D01*
X59885700Y-72386198D01*
X59890208Y-72389355D01*
X59890211Y-72389357D01*
X59904227Y-72399171D01*
X60073251Y-72517523D01*
X60078233Y-72519846D01*
X60078238Y-72519849D01*
X60275775Y-72611961D01*
X60280757Y-72614284D01*
X60286065Y-72615706D01*
X60286067Y-72615707D01*
X60496598Y-72672119D01*
X60496600Y-72672119D01*
X60501913Y-72673543D01*
X60730000Y-72693498D01*
X60958087Y-72673543D01*
X60963398Y-72672120D01*
X60963409Y-72672118D01*
X61021541Y-72656541D01*
X61092517Y-72658230D01*
X61143248Y-72689152D01*
X71408412Y-82954317D01*
X71442438Y-83016629D01*
X71445317Y-83043412D01*
X71445317Y-85249932D01*
X71425315Y-85318053D01*
X71371659Y-85364546D01*
X71301385Y-85374650D01*
X71286715Y-85371641D01*
X71118087Y-85326457D01*
X70890000Y-85306502D01*
X70661913Y-85326457D01*
X70656600Y-85327881D01*
X70656598Y-85327881D01*
X70446067Y-85384293D01*
X70446065Y-85384294D01*
X70440757Y-85385716D01*
X70435776Y-85388039D01*
X70435775Y-85388039D01*
X70238238Y-85480151D01*
X70238233Y-85480154D01*
X70233251Y-85482477D01*
X70161114Y-85532988D01*
X70050211Y-85610643D01*
X70050208Y-85610645D01*
X70045700Y-85613802D01*
X69883802Y-85775700D01*
X69752477Y-85963251D01*
X69750154Y-85968233D01*
X69750151Y-85968238D01*
X69733919Y-86003049D01*
X69687002Y-86056334D01*
X69618725Y-86075795D01*
X69550765Y-86055253D01*
X69505529Y-86003049D01*
X69489414Y-85968489D01*
X69483931Y-85958994D01*
X69447491Y-85906952D01*
X69437012Y-85898576D01*
X69423566Y-85905644D01*
X68722022Y-86607188D01*
X68714408Y-86621132D01*
X68714539Y-86622965D01*
X68718790Y-86629580D01*
X69424287Y-87335077D01*
X69436062Y-87341507D01*
X69448077Y-87332211D01*
X69483931Y-87281006D01*
X69489414Y-87271511D01*
X69505529Y-87236951D01*
X69552446Y-87183666D01*
X69620723Y-87164205D01*
X69688683Y-87184747D01*
X69733919Y-87236951D01*
X69750151Y-87271762D01*
X69750154Y-87271767D01*
X69752477Y-87276749D01*
X69883802Y-87464300D01*
X70045700Y-87626198D01*
X70050208Y-87629355D01*
X70050211Y-87629357D01*
X70104031Y-87667042D01*
X70233251Y-87757523D01*
X70238233Y-87759846D01*
X70238238Y-87759849D01*
X70351566Y-87812694D01*
X70440757Y-87854284D01*
X70446065Y-87855706D01*
X70446067Y-87855707D01*
X70656598Y-87912119D01*
X70656600Y-87912119D01*
X70661913Y-87913543D01*
X70890000Y-87933498D01*
X71118087Y-87913543D01*
X71286707Y-87868361D01*
X71357682Y-87870051D01*
X71416478Y-87909845D01*
X71444426Y-87975109D01*
X71445317Y-87990068D01*
X71445317Y-91000050D01*
X71444790Y-91011233D01*
X71443115Y-91018726D01*
X71443364Y-91026652D01*
X71443364Y-91026653D01*
X71445255Y-91086803D01*
X71445317Y-91090762D01*
X71445317Y-91118673D01*
X71445814Y-91122607D01*
X71445814Y-91122608D01*
X71445822Y-91122673D01*
X71446755Y-91134510D01*
X71448144Y-91178706D01*
X71453795Y-91198156D01*
X71457804Y-91217517D01*
X71460343Y-91237614D01*
X71463262Y-91244985D01*
X71463262Y-91244987D01*
X71476621Y-91278729D01*
X71480466Y-91289959D01*
X71492799Y-91332410D01*
X71496832Y-91339229D01*
X71496834Y-91339234D01*
X71503110Y-91349845D01*
X71511805Y-91367593D01*
X71519265Y-91386434D01*
X71523927Y-91392850D01*
X71523927Y-91392851D01*
X71545253Y-91422204D01*
X71551769Y-91432124D01*
X71574275Y-91470179D01*
X71588596Y-91484500D01*
X71601436Y-91499533D01*
X71613345Y-91515924D01*
X71619451Y-91520975D01*
X71647422Y-91544115D01*
X71656201Y-91552105D01*
X74829595Y-94725499D01*
X74863621Y-94787811D01*
X74866500Y-94814594D01*
X74866500Y-126574404D01*
X74846498Y-126642525D01*
X74805867Y-126682122D01*
X74696683Y-126748377D01*
X74692653Y-126751874D01*
X74599484Y-126832722D01*
X74522555Y-126899477D01*
X74493330Y-126935120D01*
X74434671Y-126975114D01*
X74363701Y-126977046D01*
X74302952Y-126940302D01*
X74288752Y-126921532D01*
X74202332Y-126781880D01*
X74198478Y-126775652D01*
X74073303Y-126650695D01*
X74046827Y-126634375D01*
X73928968Y-126561725D01*
X73928966Y-126561724D01*
X73922738Y-126557885D01*
X73842995Y-126531436D01*
X73761389Y-126504368D01*
X73761387Y-126504368D01*
X73754861Y-126502203D01*
X73748025Y-126501503D01*
X73748022Y-126501502D01*
X73704969Y-126497091D01*
X73650400Y-126491500D01*
X72349600Y-126491500D01*
X72346354Y-126491837D01*
X72346350Y-126491837D01*
X72250692Y-126501762D01*
X72250688Y-126501763D01*
X72243834Y-126502474D01*
X72237298Y-126504655D01*
X72237296Y-126504655D01*
X72198220Y-126517692D01*
X72076054Y-126558450D01*
X71925652Y-126651522D01*
X71800695Y-126776697D01*
X71796855Y-126782927D01*
X71796854Y-126782928D01*
X71766161Y-126832722D01*
X71707885Y-126927262D01*
X71652203Y-127095139D01*
X71641500Y-127199600D01*
X71641500Y-128800400D01*
X71652474Y-128906166D01*
X71654655Y-128912702D01*
X71654655Y-128912704D01*
X71690033Y-129018744D01*
X71708450Y-129073946D01*
X71801522Y-129224348D01*
X71926697Y-129349305D01*
X71932927Y-129353145D01*
X71932928Y-129353146D01*
X72070090Y-129437694D01*
X72077262Y-129442115D01*
X72106561Y-129451833D01*
X72238611Y-129495632D01*
X72238613Y-129495632D01*
X72245139Y-129497797D01*
X72251975Y-129498497D01*
X72251978Y-129498498D01*
X72287663Y-129502154D01*
X72349600Y-129508500D01*
X73650400Y-129508500D01*
X73653646Y-129508163D01*
X73653650Y-129508163D01*
X73749308Y-129498238D01*
X73749312Y-129498237D01*
X73756166Y-129497526D01*
X73762702Y-129495345D01*
X73762704Y-129495345D01*
X73914181Y-129444808D01*
X73923946Y-129441550D01*
X74074348Y-129348478D01*
X74199305Y-129223303D01*
X74289081Y-129077660D01*
X74341852Y-129030168D01*
X74411924Y-129018744D01*
X74477048Y-129047018D01*
X74487510Y-129056805D01*
X74528683Y-129099965D01*
X74596576Y-129171135D01*
X74600854Y-129174318D01*
X74658317Y-129217072D01*
X74781542Y-129308754D01*
X74786293Y-129311170D01*
X74786297Y-129311172D01*
X74849481Y-129343296D01*
X74987051Y-129413240D01*
X74992145Y-129414822D01*
X74992148Y-129414823D01*
X75192020Y-129476885D01*
X75207227Y-129481607D01*
X75212516Y-129482308D01*
X75430489Y-129511198D01*
X75430494Y-129511198D01*
X75435774Y-129511898D01*
X75441103Y-129511698D01*
X75441105Y-129511698D01*
X75550966Y-129507573D01*
X75666158Y-129503249D01*
X75688802Y-129498498D01*
X75886572Y-129457002D01*
X75891791Y-129455907D01*
X75896750Y-129453949D01*
X75896752Y-129453948D01*
X76101256Y-129373185D01*
X76101258Y-129373184D01*
X76106221Y-129371224D01*
X76142343Y-129349305D01*
X76298757Y-129254390D01*
X76298756Y-129254390D01*
X76303317Y-129251623D01*
X76376642Y-129187995D01*
X76473412Y-129104023D01*
X76473414Y-129104021D01*
X76477445Y-129100523D01*
X76544500Y-129018744D01*
X76620240Y-128926373D01*
X76620244Y-128926367D01*
X76623624Y-128922245D01*
X76737675Y-128721886D01*
X76816337Y-128505175D01*
X76817287Y-128499923D01*
X76856623Y-128282392D01*
X76856624Y-128282385D01*
X76857361Y-128278308D01*
X76858500Y-128254156D01*
X76858500Y-127792110D01*
X76843920Y-127620280D01*
X76842582Y-127615125D01*
X76842581Y-127615119D01*
X76787343Y-127402297D01*
X76787342Y-127402293D01*
X76786001Y-127397128D01*
X76691312Y-127186925D01*
X76562559Y-126995681D01*
X76503918Y-126934209D01*
X76491347Y-126921032D01*
X76403424Y-126828865D01*
X76218458Y-126691246D01*
X76213706Y-126688830D01*
X76213698Y-126688825D01*
X76202394Y-126683078D01*
X76150737Y-126634375D01*
X76133500Y-126570762D01*
X76133500Y-122978918D01*
X80986917Y-122978918D01*
X80987334Y-122986156D01*
X81002682Y-123252320D01*
X81055405Y-123521053D01*
X81056792Y-123525103D01*
X81056793Y-123525108D01*
X81142723Y-123776088D01*
X81144112Y-123780144D01*
X81173238Y-123838054D01*
X81242837Y-123976437D01*
X81267160Y-124024799D01*
X81269586Y-124028328D01*
X81269589Y-124028334D01*
X81419843Y-124246953D01*
X81422274Y-124250490D01*
X81606582Y-124453043D01*
X81816675Y-124628707D01*
X81820316Y-124630991D01*
X82045024Y-124771951D01*
X82045028Y-124771953D01*
X82048664Y-124774234D01*
X82116544Y-124804883D01*
X82294345Y-124885164D01*
X82294349Y-124885166D01*
X82298257Y-124886930D01*
X82302377Y-124888150D01*
X82302376Y-124888150D01*
X82556723Y-124963491D01*
X82556727Y-124963492D01*
X82560836Y-124964709D01*
X82565070Y-124965357D01*
X82565075Y-124965358D01*
X82827298Y-125005483D01*
X82827300Y-125005483D01*
X82831540Y-125006132D01*
X82970912Y-125008322D01*
X83101071Y-125010367D01*
X83101077Y-125010367D01*
X83105362Y-125010434D01*
X83377235Y-124977534D01*
X83642127Y-124908041D01*
X83646087Y-124906401D01*
X83646092Y-124906399D01*
X83768632Y-124855641D01*
X83895136Y-124803241D01*
X84131582Y-124665073D01*
X84347089Y-124496094D01*
X84388809Y-124453043D01*
X84534686Y-124302509D01*
X84537669Y-124299431D01*
X84540202Y-124295983D01*
X84540206Y-124295978D01*
X84697257Y-124082178D01*
X84699795Y-124078723D01*
X84727154Y-124028334D01*
X84828418Y-123841830D01*
X84828419Y-123841828D01*
X84830468Y-123838054D01*
X84927269Y-123581877D01*
X84968173Y-123403279D01*
X84987449Y-123319117D01*
X84987450Y-123319113D01*
X84988407Y-123314933D01*
X84996910Y-123219665D01*
X85012531Y-123044627D01*
X85012531Y-123044625D01*
X85012751Y-123042161D01*
X85013193Y-123000000D01*
X85010704Y-122963487D01*
X84994859Y-122731055D01*
X84994858Y-122731049D01*
X84994567Y-122726778D01*
X84939032Y-122458612D01*
X84847617Y-122200465D01*
X84722013Y-121957112D01*
X84712040Y-121942921D01*
X84567008Y-121736562D01*
X84564545Y-121733057D01*
X84378125Y-121532445D01*
X84374810Y-121529731D01*
X84374806Y-121529728D01*
X84169523Y-121361706D01*
X84166205Y-121358990D01*
X83932704Y-121215901D01*
X83928768Y-121214173D01*
X83685873Y-121107549D01*
X83685869Y-121107548D01*
X83681945Y-121105825D01*
X83418566Y-121030800D01*
X83414324Y-121030196D01*
X83414318Y-121030195D01*
X83198889Y-120999535D01*
X83147443Y-120992213D01*
X83003589Y-120991460D01*
X82877877Y-120990802D01*
X82877871Y-120990802D01*
X82873591Y-120990780D01*
X82869347Y-120991339D01*
X82869343Y-120991339D01*
X82807089Y-120999535D01*
X82602078Y-121026525D01*
X82597938Y-121027658D01*
X82597936Y-121027658D01*
X82532008Y-121045694D01*
X82337928Y-121098788D01*
X82333980Y-121100472D01*
X82089982Y-121204546D01*
X82089978Y-121204548D01*
X82086030Y-121206232D01*
X82066125Y-121218145D01*
X81854725Y-121344664D01*
X81854721Y-121344667D01*
X81851043Y-121346868D01*
X81637318Y-121518094D01*
X81448808Y-121716742D01*
X81289002Y-121939136D01*
X81160857Y-122181161D01*
X81159385Y-122185184D01*
X81159383Y-122185188D01*
X81116872Y-122301355D01*
X81066743Y-122438337D01*
X81008404Y-122705907D01*
X80986917Y-122978918D01*
X76133500Y-122978918D01*
X76133500Y-105625928D01*
X76153502Y-105557807D01*
X76207158Y-105511314D01*
X76272342Y-105500584D01*
X76349600Y-105508500D01*
X77650400Y-105508500D01*
X77653646Y-105508163D01*
X77653650Y-105508163D01*
X77749308Y-105498238D01*
X77749312Y-105498237D01*
X77756166Y-105497526D01*
X77762702Y-105495345D01*
X77762704Y-105495345D01*
X77916998Y-105443868D01*
X77923946Y-105441550D01*
X78074348Y-105348478D01*
X78199305Y-105223303D01*
X78289081Y-105077660D01*
X78341852Y-105030168D01*
X78411924Y-105018744D01*
X78477048Y-105047018D01*
X78487510Y-105056805D01*
X78529215Y-105100523D01*
X78596576Y-105171135D01*
X78781542Y-105308754D01*
X78786293Y-105311170D01*
X78786297Y-105311172D01*
X78859673Y-105348478D01*
X78987051Y-105413240D01*
X78992145Y-105414822D01*
X78992148Y-105414823D01*
X79140115Y-105460768D01*
X79207227Y-105481607D01*
X79212516Y-105482308D01*
X79430489Y-105511198D01*
X79430494Y-105511198D01*
X79435774Y-105511898D01*
X79441103Y-105511698D01*
X79441105Y-105511698D01*
X79550966Y-105507573D01*
X79666158Y-105503249D01*
X79678860Y-105500584D01*
X79886572Y-105457002D01*
X79891791Y-105455907D01*
X79896750Y-105453949D01*
X79896752Y-105453948D01*
X80101256Y-105373185D01*
X80101258Y-105373184D01*
X80106221Y-105371224D01*
X80143706Y-105348478D01*
X80298757Y-105254390D01*
X80298756Y-105254390D01*
X80303317Y-105251623D01*
X80307347Y-105248126D01*
X80473412Y-105104023D01*
X80473414Y-105104021D01*
X80477445Y-105100523D01*
X80544500Y-105018744D01*
X80620240Y-104926373D01*
X80620244Y-104926367D01*
X80623624Y-104922245D01*
X80737675Y-104721886D01*
X80816337Y-104505175D01*
X80817287Y-104499923D01*
X80856623Y-104282392D01*
X80856624Y-104282385D01*
X80857361Y-104278308D01*
X80858500Y-104254156D01*
X80858500Y-103792110D01*
X80852822Y-103725191D01*
X80844371Y-103625591D01*
X80844370Y-103625587D01*
X80843920Y-103620280D01*
X80842582Y-103615125D01*
X80842581Y-103615119D01*
X80787343Y-103402297D01*
X80787342Y-103402293D01*
X80786001Y-103397128D01*
X80742729Y-103301066D01*
X80693507Y-103191798D01*
X80691312Y-103186925D01*
X80562559Y-102995681D01*
X80403424Y-102828865D01*
X80218458Y-102691246D01*
X80213707Y-102688830D01*
X80213703Y-102688828D01*
X80091731Y-102626815D01*
X80012949Y-102586760D01*
X80007855Y-102585178D01*
X80007852Y-102585177D01*
X79797871Y-102519976D01*
X79792773Y-102518393D01*
X79787484Y-102517692D01*
X79569511Y-102488802D01*
X79569506Y-102488802D01*
X79564226Y-102488102D01*
X79558897Y-102488302D01*
X79558895Y-102488302D01*
X79449034Y-102492427D01*
X79333842Y-102496751D01*
X79328623Y-102497846D01*
X79306566Y-102502474D01*
X79108209Y-102544093D01*
X79103250Y-102546051D01*
X79103248Y-102546052D01*
X78898744Y-102626815D01*
X78898742Y-102626816D01*
X78893779Y-102628776D01*
X78889220Y-102631543D01*
X78889217Y-102631544D01*
X78790832Y-102691246D01*
X78696683Y-102748377D01*
X78692653Y-102751874D01*
X78599484Y-102832722D01*
X78522555Y-102899477D01*
X78493330Y-102935120D01*
X78434671Y-102975114D01*
X78363701Y-102977046D01*
X78302952Y-102940302D01*
X78288752Y-102921532D01*
X78202332Y-102781880D01*
X78198478Y-102775652D01*
X78073303Y-102650695D01*
X78067072Y-102646854D01*
X77928968Y-102561725D01*
X77928966Y-102561724D01*
X77922738Y-102557885D01*
X77842995Y-102531436D01*
X77761389Y-102504368D01*
X77761387Y-102504368D01*
X77754861Y-102502203D01*
X77748025Y-102501503D01*
X77748022Y-102501502D01*
X77704969Y-102497091D01*
X77650400Y-102491500D01*
X76349600Y-102491500D01*
X76346356Y-102491837D01*
X76346348Y-102491837D01*
X76272503Y-102499499D01*
X76202682Y-102486634D01*
X76150900Y-102438063D01*
X76133500Y-102374172D01*
X76133500Y-96625928D01*
X76153502Y-96557807D01*
X76207158Y-96511314D01*
X76272342Y-96500584D01*
X76349600Y-96508500D01*
X77650400Y-96508500D01*
X77653646Y-96508163D01*
X77653650Y-96508163D01*
X77749308Y-96498238D01*
X77749312Y-96498237D01*
X77756166Y-96497526D01*
X77762702Y-96495345D01*
X77762704Y-96495345D01*
X77916998Y-96443868D01*
X77923946Y-96441550D01*
X78074348Y-96348478D01*
X78199305Y-96223303D01*
X78289081Y-96077660D01*
X78341852Y-96030168D01*
X78411924Y-96018744D01*
X78477048Y-96047018D01*
X78487510Y-96056805D01*
X78526108Y-96097266D01*
X78596576Y-96171135D01*
X78781542Y-96308754D01*
X78786293Y-96311170D01*
X78786297Y-96311172D01*
X78849481Y-96343296D01*
X78987051Y-96413240D01*
X78992145Y-96414822D01*
X78992148Y-96414823D01*
X79140115Y-96460768D01*
X79207227Y-96481607D01*
X79212516Y-96482308D01*
X79430489Y-96511198D01*
X79430494Y-96511198D01*
X79435774Y-96511898D01*
X79441103Y-96511698D01*
X79441105Y-96511698D01*
X79550966Y-96507574D01*
X79666158Y-96503249D01*
X79678860Y-96500584D01*
X79886572Y-96457002D01*
X79891791Y-96455907D01*
X79896750Y-96453949D01*
X79896752Y-96453948D01*
X80101256Y-96373185D01*
X80101258Y-96373184D01*
X80106221Y-96371224D01*
X80143706Y-96348478D01*
X80298757Y-96254390D01*
X80298756Y-96254390D01*
X80303317Y-96251623D01*
X80343134Y-96217072D01*
X80473412Y-96104023D01*
X80473414Y-96104021D01*
X80477445Y-96100523D01*
X80546506Y-96016297D01*
X80620240Y-95926373D01*
X80620244Y-95926367D01*
X80623624Y-95922245D01*
X80737675Y-95721886D01*
X80816337Y-95505175D01*
X80817287Y-95499923D01*
X80856623Y-95282392D01*
X80856624Y-95282385D01*
X80857361Y-95278308D01*
X80858500Y-95254156D01*
X80858500Y-94792110D01*
X80852822Y-94725191D01*
X80844371Y-94625591D01*
X80844370Y-94625587D01*
X80843920Y-94620280D01*
X80842582Y-94615125D01*
X80842581Y-94615119D01*
X80787343Y-94402297D01*
X80787342Y-94402293D01*
X80786001Y-94397128D01*
X80770756Y-94363284D01*
X80693507Y-94191798D01*
X80691312Y-94186925D01*
X80562559Y-93995681D01*
X80403424Y-93828865D01*
X80218458Y-93691246D01*
X80213707Y-93688830D01*
X80213703Y-93688828D01*
X80091731Y-93626815D01*
X80012949Y-93586760D01*
X80007855Y-93585178D01*
X80007852Y-93585177D01*
X79797871Y-93519976D01*
X79792773Y-93518393D01*
X79787484Y-93517692D01*
X79569511Y-93488802D01*
X79569506Y-93488802D01*
X79564226Y-93488102D01*
X79558897Y-93488302D01*
X79558895Y-93488302D01*
X79449034Y-93492426D01*
X79333842Y-93496751D01*
X79328623Y-93497846D01*
X79306566Y-93502474D01*
X79108209Y-93544093D01*
X79103250Y-93546051D01*
X79103248Y-93546052D01*
X78898744Y-93626815D01*
X78898742Y-93626816D01*
X78893779Y-93628776D01*
X78889220Y-93631543D01*
X78889217Y-93631544D01*
X78790832Y-93691246D01*
X78696683Y-93748377D01*
X78692653Y-93751874D01*
X78599484Y-93832722D01*
X78522555Y-93899477D01*
X78493330Y-93935120D01*
X78434671Y-93975114D01*
X78363701Y-93977046D01*
X78302952Y-93940302D01*
X78288752Y-93921532D01*
X78202332Y-93781880D01*
X78198478Y-93775652D01*
X78073303Y-93650695D01*
X78067072Y-93646854D01*
X77928968Y-93561725D01*
X77928966Y-93561724D01*
X77922738Y-93557885D01*
X77842995Y-93531436D01*
X77761389Y-93504368D01*
X77761387Y-93504368D01*
X77754861Y-93502203D01*
X77748025Y-93501503D01*
X77748022Y-93501502D01*
X77704969Y-93497091D01*
X77650400Y-93491500D01*
X76349600Y-93491500D01*
X76346354Y-93491837D01*
X76346350Y-93491837D01*
X76250692Y-93501762D01*
X76250688Y-93501763D01*
X76243834Y-93502474D01*
X76237298Y-93504655D01*
X76237296Y-93504655D01*
X76198220Y-93517692D01*
X76076054Y-93558450D01*
X75925652Y-93651522D01*
X75920479Y-93656704D01*
X75825799Y-93751549D01*
X75763516Y-93785628D01*
X75692696Y-93780625D01*
X75647531Y-93751626D01*
X72749222Y-90853317D01*
X72715196Y-90791005D01*
X72712317Y-90764222D01*
X72712317Y-87926889D01*
X72732319Y-87858768D01*
X72785975Y-87812275D01*
X72856249Y-87802171D01*
X72891565Y-87812693D01*
X72980757Y-87854284D01*
X72986065Y-87855706D01*
X72986067Y-87855707D01*
X73196598Y-87912119D01*
X73196600Y-87912119D01*
X73201913Y-87913543D01*
X73430000Y-87933498D01*
X73658087Y-87913543D01*
X73663400Y-87912119D01*
X73663402Y-87912119D01*
X73873933Y-87855707D01*
X73873935Y-87855706D01*
X73879243Y-87854284D01*
X73968434Y-87812694D01*
X74081762Y-87759849D01*
X74081767Y-87759846D01*
X74086749Y-87757523D01*
X74215969Y-87667042D01*
X74269789Y-87629357D01*
X74269792Y-87629355D01*
X74274300Y-87626198D01*
X74436198Y-87464300D01*
X74567523Y-87276749D01*
X74569846Y-87271767D01*
X74569849Y-87271762D01*
X74585805Y-87237543D01*
X74632722Y-87184258D01*
X74700999Y-87164797D01*
X74768959Y-87185339D01*
X74814195Y-87237543D01*
X74830151Y-87271762D01*
X74830154Y-87271767D01*
X74832477Y-87276749D01*
X74963802Y-87464300D01*
X75125700Y-87626198D01*
X75130208Y-87629355D01*
X75130211Y-87629357D01*
X75184031Y-87667042D01*
X75313251Y-87757523D01*
X75318233Y-87759846D01*
X75318238Y-87759849D01*
X75431566Y-87812694D01*
X75520757Y-87854284D01*
X75526065Y-87855706D01*
X75526067Y-87855707D01*
X75736598Y-87912119D01*
X75736600Y-87912119D01*
X75741913Y-87913543D01*
X75970000Y-87933498D01*
X76198087Y-87913543D01*
X76203400Y-87912119D01*
X76203402Y-87912119D01*
X76413933Y-87855707D01*
X76413935Y-87855706D01*
X76419243Y-87854284D01*
X76508434Y-87812694D01*
X76621762Y-87759849D01*
X76621767Y-87759846D01*
X76626749Y-87757523D01*
X76755969Y-87667042D01*
X76809789Y-87629357D01*
X76809792Y-87629355D01*
X76814300Y-87626198D01*
X76976198Y-87464300D01*
X77107523Y-87276749D01*
X77109846Y-87271767D01*
X77109849Y-87271762D01*
X77201961Y-87074225D01*
X77201961Y-87074224D01*
X77204284Y-87069243D01*
X77243793Y-86921794D01*
X77280745Y-86861171D01*
X77344606Y-86830150D01*
X77415100Y-86838578D01*
X77469847Y-86883781D01*
X77491500Y-86954405D01*
X77491500Y-87991377D01*
X77491498Y-87992147D01*
X77491024Y-88069721D01*
X77493491Y-88078352D01*
X77499150Y-88098153D01*
X77502728Y-88114915D01*
X77506920Y-88144187D01*
X77510634Y-88152355D01*
X77510634Y-88152356D01*
X77517548Y-88167562D01*
X77523996Y-88185086D01*
X77531051Y-88209771D01*
X77535843Y-88217365D01*
X77535844Y-88217368D01*
X77546830Y-88234780D01*
X77554969Y-88249863D01*
X77567208Y-88276782D01*
X77573069Y-88283584D01*
X77583970Y-88296235D01*
X77595073Y-88311239D01*
X77608776Y-88332958D01*
X77615501Y-88338897D01*
X77615504Y-88338901D01*
X77630938Y-88352532D01*
X77642982Y-88364724D01*
X77656427Y-88380327D01*
X77656430Y-88380329D01*
X77662287Y-88387127D01*
X77669816Y-88392007D01*
X77669817Y-88392008D01*
X77683835Y-88401094D01*
X77698709Y-88412385D01*
X77711217Y-88423431D01*
X77717951Y-88429378D01*
X77744711Y-88441942D01*
X77759691Y-88450263D01*
X77776983Y-88461471D01*
X77776988Y-88461473D01*
X77784515Y-88466352D01*
X77793108Y-88468922D01*
X77793113Y-88468924D01*
X77809120Y-88473711D01*
X77826564Y-88480372D01*
X77841676Y-88487467D01*
X77841678Y-88487468D01*
X77849800Y-88491281D01*
X77858667Y-88492662D01*
X77858668Y-88492662D01*
X77868310Y-88494163D01*
X77879017Y-88495830D01*
X77895732Y-88499613D01*
X77915466Y-88505515D01*
X77915472Y-88505516D01*
X77924066Y-88508086D01*
X77933037Y-88508141D01*
X77933038Y-88508141D01*
X77943097Y-88508202D01*
X77958506Y-88508296D01*
X77959289Y-88508329D01*
X77960386Y-88508500D01*
X77991377Y-88508500D01*
X77992147Y-88508502D01*
X78065785Y-88508952D01*
X78065786Y-88508952D01*
X78069721Y-88508976D01*
X78071065Y-88508592D01*
X78072410Y-88508500D01*
X84417560Y-88508500D01*
X84485681Y-88528502D01*
X84532174Y-88582158D01*
X84543099Y-88623737D01*
X87465857Y-122722581D01*
X87491040Y-123016386D01*
X87491500Y-123027147D01*
X87491500Y-136365500D01*
X87471498Y-136433621D01*
X87417842Y-136480114D01*
X87365500Y-136491500D01*
X54008623Y-136491500D01*
X54007853Y-136491498D01*
X54007037Y-136491493D01*
X53930279Y-136491024D01*
X53907918Y-136497415D01*
X53901847Y-136499150D01*
X53885085Y-136502728D01*
X53855813Y-136506920D01*
X53847645Y-136510634D01*
X53847644Y-136510634D01*
X53832438Y-136517548D01*
X53814914Y-136523996D01*
X53790229Y-136531051D01*
X53782635Y-136535843D01*
X53782632Y-136535844D01*
X53765220Y-136546830D01*
X53750137Y-136554969D01*
X53723218Y-136567208D01*
X53716416Y-136573069D01*
X53703765Y-136583970D01*
X53688761Y-136595073D01*
X53667042Y-136608776D01*
X53661103Y-136615501D01*
X53661099Y-136615504D01*
X53647468Y-136630938D01*
X53635276Y-136642982D01*
X53619673Y-136656427D01*
X53619671Y-136656430D01*
X53612873Y-136662287D01*
X53607993Y-136669816D01*
X53607992Y-136669817D01*
X53598906Y-136683835D01*
X53587615Y-136698709D01*
X53576569Y-136711217D01*
X53570622Y-136717951D01*
X53558058Y-136744711D01*
X53549737Y-136759691D01*
X53538529Y-136776983D01*
X53538527Y-136776988D01*
X53533648Y-136784515D01*
X53531078Y-136793108D01*
X53531076Y-136793113D01*
X53526289Y-136809120D01*
X53519628Y-136826564D01*
X53508719Y-136849800D01*
X53507338Y-136858667D01*
X53507338Y-136858668D01*
X53504170Y-136879015D01*
X53500387Y-136895732D01*
X53494485Y-136915466D01*
X53494484Y-136915472D01*
X53491914Y-136924066D01*
X53491859Y-136933037D01*
X53491859Y-136933038D01*
X53491704Y-136958497D01*
X53491671Y-136959289D01*
X53491500Y-136960386D01*
X53491500Y-136991377D01*
X53491498Y-136992147D01*
X53491024Y-137069721D01*
X53491408Y-137071065D01*
X53491500Y-137072410D01*
X53491500Y-155365500D01*
X53471498Y-155433621D01*
X53417842Y-155480114D01*
X53365500Y-155491500D01*
X40049367Y-155491500D01*
X40029982Y-155490000D01*
X40015149Y-155487690D01*
X40015145Y-155487690D01*
X40006276Y-155486309D01*
X39985817Y-155488984D01*
X39963993Y-155489928D01*
X39614035Y-155474648D01*
X39603086Y-155473690D01*
X39225502Y-155423981D01*
X39214693Y-155422074D01*
X38842885Y-155339647D01*
X38832268Y-155336802D01*
X38469061Y-155222282D01*
X38458746Y-155218529D01*
X38106877Y-155072780D01*
X38096933Y-155068142D01*
X37759132Y-154892294D01*
X37749613Y-154886799D01*
X37428426Y-154682180D01*
X37419422Y-154675876D01*
X37117284Y-154444038D01*
X37108863Y-154436972D01*
X36828086Y-154179686D01*
X36820314Y-154171914D01*
X36563028Y-153891137D01*
X36555962Y-153882716D01*
X36324124Y-153580578D01*
X36317820Y-153571574D01*
X36113201Y-153250387D01*
X36107705Y-153240867D01*
X35987749Y-153010434D01*
X35931858Y-152903067D01*
X35927216Y-152893114D01*
X35889990Y-152803241D01*
X35781471Y-152541254D01*
X35777715Y-152530932D01*
X35767567Y-152498745D01*
X35663198Y-152167731D01*
X35660353Y-152157114D01*
X35631803Y-152028334D01*
X35577926Y-151785307D01*
X35576018Y-151774490D01*
X35551190Y-151585895D01*
X35526310Y-151396913D01*
X35525352Y-151385964D01*
X35510561Y-151047208D01*
X35512188Y-151020805D01*
X35512769Y-151017352D01*
X35512770Y-151017345D01*
X35513576Y-151012552D01*
X35513729Y-151000000D01*
X35510710Y-150978918D01*
X37986917Y-150978918D01*
X37987334Y-150986156D01*
X38002682Y-151252320D01*
X38055405Y-151521053D01*
X38056792Y-151525103D01*
X38056793Y-151525108D01*
X38142176Y-151774490D01*
X38144112Y-151780144D01*
X38173238Y-151838054D01*
X38242837Y-151976437D01*
X38267160Y-152024799D01*
X38269586Y-152028328D01*
X38269589Y-152028334D01*
X38419843Y-152246953D01*
X38422274Y-152250490D01*
X38606582Y-152453043D01*
X38816675Y-152628707D01*
X38820316Y-152630991D01*
X39045024Y-152771951D01*
X39045028Y-152771953D01*
X39048664Y-152774234D01*
X39116544Y-152804883D01*
X39294345Y-152885164D01*
X39294349Y-152885166D01*
X39298257Y-152886930D01*
X39302377Y-152888150D01*
X39302376Y-152888150D01*
X39556723Y-152963491D01*
X39556727Y-152963492D01*
X39560836Y-152964709D01*
X39565070Y-152965357D01*
X39565075Y-152965358D01*
X39827298Y-153005483D01*
X39827300Y-153005483D01*
X39831540Y-153006132D01*
X39970912Y-153008322D01*
X40101071Y-153010367D01*
X40101077Y-153010367D01*
X40105362Y-153010434D01*
X40377235Y-152977534D01*
X40642127Y-152908041D01*
X40646087Y-152906401D01*
X40646092Y-152906399D01*
X40768632Y-152855641D01*
X40895136Y-152803241D01*
X41131582Y-152665073D01*
X41347089Y-152496094D01*
X41388809Y-152453043D01*
X41534686Y-152302509D01*
X41537669Y-152299431D01*
X41540202Y-152295983D01*
X41540206Y-152295978D01*
X41697257Y-152082178D01*
X41699795Y-152078723D01*
X41727154Y-152028334D01*
X41828418Y-151841830D01*
X41828419Y-151841828D01*
X41830468Y-151838054D01*
X41927269Y-151581877D01*
X41972139Y-151385964D01*
X41987449Y-151319117D01*
X41987450Y-151319113D01*
X41988407Y-151314933D01*
X41996910Y-151219665D01*
X42012531Y-151044627D01*
X42012531Y-151044625D01*
X42012751Y-151042161D01*
X42013193Y-151000000D01*
X42010704Y-150963487D01*
X41994859Y-150731055D01*
X41994858Y-150731049D01*
X41994567Y-150726778D01*
X41939032Y-150458612D01*
X41847617Y-150200465D01*
X41722013Y-149957112D01*
X41712040Y-149942921D01*
X41567008Y-149736562D01*
X41564545Y-149733057D01*
X41378125Y-149532445D01*
X41374810Y-149529731D01*
X41374806Y-149529728D01*
X41169523Y-149361706D01*
X41166205Y-149358990D01*
X40932704Y-149215901D01*
X40928768Y-149214173D01*
X40685873Y-149107549D01*
X40685869Y-149107548D01*
X40681945Y-149105825D01*
X40418566Y-149030800D01*
X40414324Y-149030196D01*
X40414318Y-149030195D01*
X40213834Y-149001662D01*
X40147443Y-148992213D01*
X40003589Y-148991460D01*
X39877877Y-148990802D01*
X39877871Y-148990802D01*
X39873591Y-148990780D01*
X39869347Y-148991339D01*
X39869343Y-148991339D01*
X39750302Y-149007011D01*
X39602078Y-149026525D01*
X39597938Y-149027658D01*
X39597936Y-149027658D01*
X39525008Y-149047609D01*
X39337928Y-149098788D01*
X39333980Y-149100472D01*
X39089982Y-149204546D01*
X39089978Y-149204548D01*
X39086030Y-149206232D01*
X39066125Y-149218145D01*
X38854725Y-149344664D01*
X38854721Y-149344667D01*
X38851043Y-149346868D01*
X38637318Y-149518094D01*
X38448808Y-149716742D01*
X38289002Y-149939136D01*
X38160857Y-150181161D01*
X38159385Y-150185184D01*
X38159383Y-150185188D01*
X38116872Y-150301355D01*
X38066743Y-150438337D01*
X38008404Y-150705907D01*
X38008068Y-150710177D01*
X37988376Y-150960386D01*
X37986917Y-150978918D01*
X35510710Y-150978918D01*
X35509773Y-150972376D01*
X35508500Y-150954514D01*
X35508500Y-131679684D01*
X36935146Y-131679684D01*
X36940427Y-131686738D01*
X37124238Y-131794148D01*
X37133525Y-131798598D01*
X37344005Y-131878972D01*
X37353903Y-131881848D01*
X37574685Y-131926766D01*
X37584913Y-131927985D01*
X37810064Y-131936242D01*
X37820350Y-131935775D01*
X38043831Y-131907146D01*
X38053909Y-131905004D01*
X38269707Y-131840261D01*
X38279305Y-131836499D01*
X38481637Y-131737379D01*
X38490475Y-131732110D01*
X38553021Y-131687497D01*
X38561421Y-131676798D01*
X38554432Y-131663642D01*
X37762812Y-130872022D01*
X37748868Y-130864408D01*
X37747035Y-130864539D01*
X37740420Y-130868790D01*
X36941906Y-131667304D01*
X36935146Y-131679684D01*
X35508500Y-131679684D01*
X35508500Y-130470025D01*
X36312815Y-130470025D01*
X36325786Y-130694960D01*
X36327219Y-130705162D01*
X36376749Y-130924945D01*
X36379832Y-130934785D01*
X36464594Y-131143527D01*
X36469247Y-131152738D01*
X36561917Y-131303960D01*
X36572375Y-131313422D01*
X36581151Y-131309639D01*
X37377978Y-130512812D01*
X37384356Y-130501132D01*
X38114408Y-130501132D01*
X38114539Y-130502965D01*
X38118790Y-130509580D01*
X38914216Y-131305006D01*
X38928160Y-131312620D01*
X38940781Y-131311718D01*
X38977374Y-131297661D01*
X39046892Y-131312074D01*
X39088327Y-131348016D01*
X39089258Y-131349535D01*
X39243595Y-131527707D01*
X39394848Y-131653279D01*
X39411741Y-131667304D01*
X39424960Y-131678279D01*
X39429412Y-131680881D01*
X39429417Y-131680884D01*
X39623245Y-131794148D01*
X39628482Y-131797208D01*
X39848696Y-131881299D01*
X39853762Y-131882330D01*
X39853763Y-131882330D01*
X39956611Y-131903254D01*
X40079686Y-131928294D01*
X40212389Y-131933160D01*
X40310087Y-131936743D01*
X40310091Y-131936743D01*
X40315251Y-131936932D01*
X40320371Y-131936276D01*
X40320373Y-131936276D01*
X40394609Y-131926766D01*
X40549063Y-131906980D01*
X40554012Y-131905495D01*
X40554018Y-131905494D01*
X40685465Y-131866058D01*
X40774844Y-131839243D01*
X40986529Y-131735539D01*
X40990732Y-131732541D01*
X40990737Y-131732538D01*
X41174231Y-131601653D01*
X41174233Y-131601651D01*
X41178435Y-131598654D01*
X41345407Y-131432264D01*
X41395365Y-131362740D01*
X41451360Y-131319092D01*
X41522063Y-131312646D01*
X41585028Y-131345449D01*
X41592921Y-131353764D01*
X41743595Y-131527707D01*
X41894848Y-131653279D01*
X41911741Y-131667304D01*
X41924960Y-131678279D01*
X41929412Y-131680881D01*
X41929417Y-131680884D01*
X42123245Y-131794148D01*
X42128482Y-131797208D01*
X42348696Y-131881299D01*
X42353762Y-131882330D01*
X42353763Y-131882330D01*
X42456611Y-131903254D01*
X42579686Y-131928294D01*
X42712389Y-131933160D01*
X42810087Y-131936743D01*
X42810091Y-131936743D01*
X42815251Y-131936932D01*
X42820371Y-131936276D01*
X42820373Y-131936276D01*
X42894609Y-131926766D01*
X43049063Y-131906980D01*
X43054012Y-131905495D01*
X43054018Y-131905494D01*
X43185465Y-131866058D01*
X43274844Y-131839243D01*
X43486529Y-131735539D01*
X43490732Y-131732541D01*
X43490737Y-131732538D01*
X43674231Y-131601653D01*
X43674233Y-131601651D01*
X43678435Y-131598654D01*
X43845407Y-131432264D01*
X43895365Y-131362740D01*
X43951360Y-131319092D01*
X44022063Y-131312646D01*
X44085028Y-131345449D01*
X44092921Y-131353764D01*
X44243595Y-131527707D01*
X44394848Y-131653279D01*
X44411741Y-131667304D01*
X44424960Y-131678279D01*
X44429412Y-131680881D01*
X44429417Y-131680884D01*
X44623245Y-131794148D01*
X44628482Y-131797208D01*
X44848696Y-131881299D01*
X44853762Y-131882330D01*
X44853763Y-131882330D01*
X44956611Y-131903254D01*
X45079686Y-131928294D01*
X45212389Y-131933160D01*
X45310087Y-131936743D01*
X45310091Y-131936743D01*
X45315251Y-131936932D01*
X45320371Y-131936276D01*
X45320373Y-131936276D01*
X45394609Y-131926766D01*
X45549063Y-131906980D01*
X45554012Y-131905495D01*
X45554018Y-131905494D01*
X45685465Y-131866058D01*
X45774844Y-131839243D01*
X45986529Y-131735539D01*
X45990732Y-131732541D01*
X45990737Y-131732538D01*
X46174231Y-131601653D01*
X46174233Y-131601651D01*
X46178435Y-131598654D01*
X46345407Y-131432264D01*
X46430804Y-131313422D01*
X46479943Y-131245037D01*
X46482961Y-131240837D01*
X46526503Y-131152738D01*
X46585109Y-131034157D01*
X46585110Y-131034155D01*
X46587403Y-131029515D01*
X46655928Y-130803972D01*
X46668937Y-130705162D01*
X46686259Y-130573587D01*
X46686259Y-130573583D01*
X46686696Y-130570266D01*
X46688413Y-130500000D01*
X46682017Y-130422201D01*
X46669522Y-130270221D01*
X46669521Y-130270215D01*
X46669098Y-130265070D01*
X46611673Y-130036449D01*
X46517678Y-129820277D01*
X46389640Y-129622359D01*
X46368430Y-129599049D01*
X46234473Y-129451833D01*
X46234471Y-129451832D01*
X46230995Y-129448011D01*
X46226944Y-129444812D01*
X46226940Y-129444808D01*
X46050061Y-129305117D01*
X46050057Y-129305115D01*
X46046006Y-129301915D01*
X45839639Y-129187995D01*
X45834770Y-129186271D01*
X45834766Y-129186269D01*
X45622311Y-129111035D01*
X45622307Y-129111034D01*
X45617436Y-129109309D01*
X45612343Y-129108402D01*
X45612340Y-129108401D01*
X45390456Y-129068877D01*
X45390450Y-129068876D01*
X45385367Y-129067971D01*
X45294523Y-129066861D01*
X45154830Y-129065154D01*
X45154828Y-129065154D01*
X45149661Y-129065091D01*
X44916651Y-129100747D01*
X44692593Y-129173980D01*
X44483504Y-129282825D01*
X44479371Y-129285928D01*
X44479368Y-129285930D01*
X44307699Y-129414823D01*
X44295000Y-129424358D01*
X44272397Y-129448011D01*
X44219419Y-129503449D01*
X44132143Y-129594777D01*
X44129231Y-129599046D01*
X44129229Y-129599049D01*
X44105389Y-129633996D01*
X44050477Y-129678998D01*
X43979952Y-129687169D01*
X43916206Y-129655915D01*
X43895509Y-129631431D01*
X43892450Y-129626702D01*
X43892447Y-129626699D01*
X43889640Y-129622359D01*
X43868430Y-129599049D01*
X43734473Y-129451833D01*
X43734471Y-129451832D01*
X43730995Y-129448011D01*
X43726944Y-129444812D01*
X43726940Y-129444808D01*
X43550061Y-129305117D01*
X43550057Y-129305115D01*
X43546006Y-129301915D01*
X43339639Y-129187995D01*
X43334770Y-129186271D01*
X43334766Y-129186269D01*
X43122311Y-129111035D01*
X43122307Y-129111034D01*
X43117436Y-129109309D01*
X43112343Y-129108402D01*
X43112340Y-129108401D01*
X42890456Y-129068877D01*
X42890450Y-129068876D01*
X42885367Y-129067971D01*
X42794523Y-129066861D01*
X42654830Y-129065154D01*
X42654828Y-129065154D01*
X42649661Y-129065091D01*
X42416651Y-129100747D01*
X42192593Y-129173980D01*
X41983504Y-129282825D01*
X41979371Y-129285928D01*
X41979368Y-129285930D01*
X41807699Y-129414823D01*
X41795000Y-129424358D01*
X41772397Y-129448011D01*
X41719419Y-129503449D01*
X41632143Y-129594777D01*
X41629231Y-129599046D01*
X41629229Y-129599049D01*
X41605389Y-129633996D01*
X41550477Y-129678998D01*
X41479952Y-129687169D01*
X41416206Y-129655915D01*
X41395509Y-129631431D01*
X41392450Y-129626702D01*
X41392447Y-129626699D01*
X41389640Y-129622359D01*
X41368430Y-129599049D01*
X41234473Y-129451833D01*
X41234471Y-129451832D01*
X41230995Y-129448011D01*
X41226944Y-129444812D01*
X41226940Y-129444808D01*
X41050061Y-129305117D01*
X41050057Y-129305115D01*
X41046006Y-129301915D01*
X40839639Y-129187995D01*
X40834770Y-129186271D01*
X40834766Y-129186269D01*
X40622311Y-129111035D01*
X40622307Y-129111034D01*
X40617436Y-129109309D01*
X40612343Y-129108402D01*
X40612340Y-129108401D01*
X40390456Y-129068877D01*
X40390450Y-129068876D01*
X40385367Y-129067971D01*
X40294523Y-129066861D01*
X40154830Y-129065154D01*
X40154828Y-129065154D01*
X40149661Y-129065091D01*
X39916651Y-129100747D01*
X39692593Y-129173980D01*
X39483504Y-129282825D01*
X39479371Y-129285928D01*
X39479368Y-129285930D01*
X39307699Y-129414823D01*
X39295000Y-129424358D01*
X39272397Y-129448011D01*
X39219419Y-129503449D01*
X39132143Y-129594777D01*
X39107140Y-129631431D01*
X39095595Y-129648355D01*
X39040684Y-129693358D01*
X38970159Y-129701529D01*
X38944101Y-129689242D01*
X38928236Y-129687010D01*
X38917051Y-129692159D01*
X38122022Y-130487188D01*
X38114408Y-130501132D01*
X37384356Y-130501132D01*
X37385592Y-130498868D01*
X37385461Y-130497035D01*
X37381210Y-130490420D01*
X36585875Y-129695085D01*
X36574339Y-129688785D01*
X36562057Y-129698408D01*
X36502657Y-129785485D01*
X36497568Y-129794444D01*
X36402706Y-129998807D01*
X36399149Y-130008475D01*
X36338940Y-130225580D01*
X36337009Y-130235699D01*
X36313067Y-130459736D01*
X36312815Y-130470025D01*
X35508500Y-130470025D01*
X35508500Y-129322856D01*
X36937652Y-129322856D01*
X36944398Y-129335188D01*
X37737188Y-130127978D01*
X37751132Y-130135592D01*
X37752965Y-130135461D01*
X37759580Y-130131210D01*
X38556790Y-129334000D01*
X38563811Y-129321143D01*
X38556038Y-129310475D01*
X38549786Y-129305538D01*
X38541205Y-129299836D01*
X38343955Y-129190948D01*
X38334560Y-129186727D01*
X38122180Y-129111519D01*
X38112217Y-129108887D01*
X37890407Y-129069376D01*
X37880156Y-129068407D01*
X37654866Y-129065655D01*
X37644582Y-129066375D01*
X37421879Y-129100453D01*
X37411852Y-129102842D01*
X37197705Y-129172836D01*
X37188196Y-129176833D01*
X36988360Y-129280861D01*
X36979635Y-129286355D01*
X36946106Y-129311530D01*
X36937652Y-129322856D01*
X35508500Y-129322856D01*
X35508500Y-128800400D01*
X51641500Y-128800400D01*
X51652474Y-128906166D01*
X51654655Y-128912702D01*
X51654655Y-128912704D01*
X51690033Y-129018744D01*
X51708450Y-129073946D01*
X51801522Y-129224348D01*
X51926697Y-129349305D01*
X51932927Y-129353145D01*
X51932928Y-129353146D01*
X52070090Y-129437694D01*
X52077262Y-129442115D01*
X52106561Y-129451833D01*
X52238611Y-129495632D01*
X52238613Y-129495632D01*
X52245139Y-129497797D01*
X52251975Y-129498497D01*
X52251978Y-129498498D01*
X52287663Y-129502154D01*
X52349600Y-129508500D01*
X53650400Y-129508500D01*
X53653646Y-129508163D01*
X53653650Y-129508163D01*
X53749308Y-129498238D01*
X53749312Y-129498237D01*
X53756166Y-129497526D01*
X53762702Y-129495345D01*
X53762704Y-129495345D01*
X53914181Y-129444808D01*
X53923946Y-129441550D01*
X54074348Y-129348478D01*
X54199305Y-129223303D01*
X54289081Y-129077660D01*
X54341852Y-129030168D01*
X54411924Y-129018744D01*
X54477048Y-129047018D01*
X54487510Y-129056805D01*
X54528683Y-129099965D01*
X54596576Y-129171135D01*
X54600854Y-129174318D01*
X54658317Y-129217072D01*
X54781542Y-129308754D01*
X54786293Y-129311170D01*
X54786297Y-129311172D01*
X54849481Y-129343296D01*
X54987051Y-129413240D01*
X54992145Y-129414822D01*
X54992148Y-129414823D01*
X55192020Y-129476885D01*
X55207227Y-129481607D01*
X55212516Y-129482308D01*
X55430489Y-129511198D01*
X55430494Y-129511198D01*
X55435774Y-129511898D01*
X55441103Y-129511698D01*
X55441105Y-129511698D01*
X55550966Y-129507573D01*
X55666158Y-129503249D01*
X55688802Y-129498498D01*
X55886572Y-129457002D01*
X55891791Y-129455907D01*
X55896750Y-129453949D01*
X55896752Y-129453948D01*
X56101256Y-129373185D01*
X56101258Y-129373184D01*
X56106221Y-129371224D01*
X56142343Y-129349305D01*
X56298757Y-129254390D01*
X56298756Y-129254390D01*
X56303317Y-129251623D01*
X56376642Y-129187995D01*
X56473412Y-129104023D01*
X56473414Y-129104021D01*
X56477445Y-129100523D01*
X56544500Y-129018744D01*
X56620240Y-128926373D01*
X56620244Y-128926367D01*
X56623624Y-128922245D01*
X56737675Y-128721886D01*
X56816337Y-128505175D01*
X56817287Y-128499923D01*
X56856623Y-128282392D01*
X56856624Y-128282385D01*
X56857361Y-128278308D01*
X56858500Y-128254156D01*
X56858500Y-127792110D01*
X56843920Y-127620280D01*
X56842582Y-127615125D01*
X56842581Y-127615119D01*
X56787343Y-127402297D01*
X56787342Y-127402293D01*
X56786001Y-127397128D01*
X56691312Y-127186925D01*
X56562559Y-126995681D01*
X56503918Y-126934209D01*
X56491347Y-126921032D01*
X56403424Y-126828865D01*
X56218458Y-126691246D01*
X56213707Y-126688830D01*
X56213703Y-126688828D01*
X56091731Y-126626815D01*
X56012949Y-126586760D01*
X56007855Y-126585178D01*
X56007852Y-126585177D01*
X55797871Y-126519976D01*
X55792773Y-126518393D01*
X55787484Y-126517692D01*
X55569511Y-126488802D01*
X55569506Y-126488802D01*
X55564226Y-126488102D01*
X55558897Y-126488302D01*
X55558895Y-126488302D01*
X55449034Y-126492426D01*
X55333842Y-126496751D01*
X55328623Y-126497846D01*
X55306566Y-126502474D01*
X55108209Y-126544093D01*
X55103250Y-126546051D01*
X55103248Y-126546052D01*
X54898744Y-126626815D01*
X54898742Y-126626816D01*
X54893779Y-126628776D01*
X54889220Y-126631543D01*
X54889217Y-126631544D01*
X54790832Y-126691246D01*
X54696683Y-126748377D01*
X54692653Y-126751874D01*
X54599484Y-126832722D01*
X54522555Y-126899477D01*
X54493330Y-126935120D01*
X54434671Y-126975114D01*
X54363701Y-126977046D01*
X54302952Y-126940302D01*
X54288752Y-126921532D01*
X54202332Y-126781880D01*
X54198478Y-126775652D01*
X54073303Y-126650695D01*
X54046827Y-126634375D01*
X53928968Y-126561725D01*
X53928966Y-126561724D01*
X53922738Y-126557885D01*
X53842995Y-126531436D01*
X53761389Y-126504368D01*
X53761387Y-126504368D01*
X53754861Y-126502203D01*
X53748025Y-126501503D01*
X53748022Y-126501502D01*
X53704969Y-126497091D01*
X53650400Y-126491500D01*
X52349600Y-126491500D01*
X52346354Y-126491837D01*
X52346350Y-126491837D01*
X52250692Y-126501762D01*
X52250688Y-126501763D01*
X52243834Y-126502474D01*
X52237298Y-126504655D01*
X52237296Y-126504655D01*
X52198220Y-126517692D01*
X52076054Y-126558450D01*
X51925652Y-126651522D01*
X51800695Y-126776697D01*
X51796855Y-126782927D01*
X51796854Y-126782928D01*
X51766161Y-126832722D01*
X51707885Y-126927262D01*
X51652203Y-127095139D01*
X51641500Y-127199600D01*
X51641500Y-128800400D01*
X35508500Y-128800400D01*
X35508500Y-60464856D01*
X36312016Y-60464856D01*
X36312313Y-60470008D01*
X36312313Y-60470012D01*
X36325288Y-60695029D01*
X36325289Y-60695035D01*
X36325586Y-60700188D01*
X36377408Y-60930144D01*
X36379352Y-60934930D01*
X36379353Y-60934935D01*
X36419643Y-61034157D01*
X36466093Y-61148548D01*
X36589258Y-61349535D01*
X36743595Y-61527707D01*
X36924960Y-61678279D01*
X36929412Y-61680881D01*
X36929417Y-61680884D01*
X37124024Y-61794603D01*
X37128482Y-61797208D01*
X37348696Y-61881299D01*
X37353762Y-61882330D01*
X37353763Y-61882330D01*
X37456611Y-61903254D01*
X37579686Y-61928294D01*
X37712389Y-61933160D01*
X37810087Y-61936743D01*
X37810091Y-61936743D01*
X37815251Y-61936932D01*
X37820371Y-61936276D01*
X37820373Y-61936276D01*
X37893235Y-61926942D01*
X38049063Y-61906980D01*
X38054012Y-61905495D01*
X38054018Y-61905494D01*
X38185465Y-61866058D01*
X38274844Y-61839243D01*
X38486529Y-61735539D01*
X38490732Y-61732541D01*
X38490737Y-61732538D01*
X38674231Y-61601653D01*
X38674233Y-61601651D01*
X38678435Y-61598654D01*
X38845407Y-61432264D01*
X38982961Y-61240837D01*
X39087403Y-61029515D01*
X39155928Y-60803972D01*
X39156603Y-60798846D01*
X39186259Y-60573587D01*
X39186259Y-60573583D01*
X39186696Y-60570266D01*
X39188413Y-60500000D01*
X39185524Y-60464856D01*
X41312016Y-60464856D01*
X41312313Y-60470008D01*
X41312313Y-60470012D01*
X41325288Y-60695029D01*
X41325289Y-60695035D01*
X41325586Y-60700188D01*
X41377408Y-60930144D01*
X41379352Y-60934930D01*
X41379353Y-60934935D01*
X41419643Y-61034157D01*
X41466093Y-61148548D01*
X41589258Y-61349535D01*
X41743595Y-61527707D01*
X41924960Y-61678279D01*
X41929412Y-61680881D01*
X41929417Y-61680884D01*
X42124024Y-61794603D01*
X42128482Y-61797208D01*
X42348696Y-61881299D01*
X42353762Y-61882330D01*
X42353763Y-61882330D01*
X42456611Y-61903254D01*
X42579686Y-61928294D01*
X42712389Y-61933160D01*
X42810087Y-61936743D01*
X42810091Y-61936743D01*
X42815251Y-61936932D01*
X42820371Y-61936276D01*
X42820373Y-61936276D01*
X42893235Y-61926942D01*
X43049063Y-61906980D01*
X43054012Y-61905495D01*
X43054018Y-61905494D01*
X43185465Y-61866058D01*
X43274844Y-61839243D01*
X43486529Y-61735539D01*
X43490732Y-61732541D01*
X43490737Y-61732538D01*
X43674231Y-61601653D01*
X43674233Y-61601651D01*
X43678435Y-61598654D01*
X43845407Y-61432264D01*
X43982961Y-61240837D01*
X44087403Y-61029515D01*
X44155928Y-60803972D01*
X44156603Y-60798846D01*
X44186259Y-60573587D01*
X44186259Y-60573583D01*
X44186696Y-60570266D01*
X44188413Y-60500000D01*
X44182017Y-60422201D01*
X44169522Y-60270221D01*
X44169521Y-60270215D01*
X44169098Y-60265070D01*
X44111673Y-60036449D01*
X44017678Y-59820277D01*
X43889640Y-59622359D01*
X43864543Y-59594777D01*
X43734473Y-59451833D01*
X43734471Y-59451832D01*
X43730995Y-59448011D01*
X43726944Y-59444812D01*
X43726940Y-59444808D01*
X43550061Y-59305117D01*
X43550057Y-59305115D01*
X43546006Y-59301915D01*
X43339639Y-59187995D01*
X43334770Y-59186271D01*
X43334766Y-59186269D01*
X43122311Y-59111035D01*
X43122307Y-59111034D01*
X43117436Y-59109309D01*
X43112343Y-59108402D01*
X43112340Y-59108401D01*
X42890456Y-59068877D01*
X42890450Y-59068876D01*
X42885367Y-59067971D01*
X42794523Y-59066861D01*
X42654830Y-59065154D01*
X42654828Y-59065154D01*
X42649661Y-59065091D01*
X42416651Y-59100747D01*
X42192593Y-59173980D01*
X41983504Y-59282825D01*
X41979371Y-59285928D01*
X41979368Y-59285930D01*
X41799135Y-59421253D01*
X41795000Y-59424358D01*
X41632143Y-59594777D01*
X41499307Y-59789508D01*
X41497133Y-59794192D01*
X41497131Y-59794195D01*
X41482820Y-59825027D01*
X41400059Y-60003319D01*
X41337065Y-60230468D01*
X41312016Y-60464856D01*
X39185524Y-60464856D01*
X39182017Y-60422201D01*
X39169522Y-60270221D01*
X39169521Y-60270215D01*
X39169098Y-60265070D01*
X39111673Y-60036449D01*
X39017678Y-59820277D01*
X38889640Y-59622359D01*
X38864543Y-59594777D01*
X38734473Y-59451833D01*
X38734471Y-59451832D01*
X38730995Y-59448011D01*
X38726944Y-59444812D01*
X38726940Y-59444808D01*
X38550061Y-59305117D01*
X38550057Y-59305115D01*
X38546006Y-59301915D01*
X38339639Y-59187995D01*
X38334770Y-59186271D01*
X38334766Y-59186269D01*
X38122311Y-59111035D01*
X38122307Y-59111034D01*
X38117436Y-59109309D01*
X38112343Y-59108402D01*
X38112340Y-59108401D01*
X37890456Y-59068877D01*
X37890450Y-59068876D01*
X37885367Y-59067971D01*
X37794523Y-59066861D01*
X37654830Y-59065154D01*
X37654828Y-59065154D01*
X37649661Y-59065091D01*
X37416651Y-59100747D01*
X37192593Y-59173980D01*
X36983504Y-59282825D01*
X36979371Y-59285928D01*
X36979368Y-59285930D01*
X36799135Y-59421253D01*
X36795000Y-59424358D01*
X36632143Y-59594777D01*
X36499307Y-59789508D01*
X36497133Y-59794192D01*
X36497131Y-59794195D01*
X36482820Y-59825027D01*
X36400059Y-60003319D01*
X36337065Y-60230468D01*
X36312016Y-60464856D01*
X35508500Y-60464856D01*
X35508500Y-48800400D01*
X37641500Y-48800400D01*
X37652474Y-48906166D01*
X37654655Y-48912702D01*
X37654655Y-48912704D01*
X37690033Y-49018744D01*
X37708450Y-49073946D01*
X37801522Y-49224348D01*
X37926697Y-49349305D01*
X37932927Y-49353145D01*
X37932928Y-49353146D01*
X38070090Y-49437694D01*
X38077262Y-49442115D01*
X38112938Y-49453948D01*
X38238611Y-49495632D01*
X38238613Y-49495632D01*
X38245139Y-49497797D01*
X38251975Y-49498497D01*
X38251978Y-49498498D01*
X38287663Y-49502154D01*
X38349600Y-49508500D01*
X39650400Y-49508500D01*
X39653646Y-49508163D01*
X39653650Y-49508163D01*
X39749308Y-49498238D01*
X39749312Y-49498237D01*
X39756166Y-49497526D01*
X39762702Y-49495345D01*
X39762704Y-49495345D01*
X39894806Y-49451272D01*
X39923946Y-49441550D01*
X40074348Y-49348478D01*
X40199305Y-49223303D01*
X40289081Y-49077660D01*
X40341852Y-49030168D01*
X40411924Y-49018744D01*
X40477048Y-49047018D01*
X40487510Y-49056805D01*
X40529215Y-49100523D01*
X40596576Y-49171135D01*
X40781542Y-49308754D01*
X40786293Y-49311170D01*
X40786297Y-49311172D01*
X40849481Y-49343296D01*
X40987051Y-49413240D01*
X40992145Y-49414822D01*
X40992148Y-49414823D01*
X41192020Y-49476885D01*
X41207227Y-49481607D01*
X41212516Y-49482308D01*
X41430489Y-49511198D01*
X41430494Y-49511198D01*
X41435774Y-49511898D01*
X41441103Y-49511698D01*
X41441105Y-49511698D01*
X41550966Y-49507574D01*
X41666158Y-49503249D01*
X41688802Y-49498498D01*
X41886572Y-49457002D01*
X41891791Y-49455907D01*
X41896750Y-49453949D01*
X41896752Y-49453948D01*
X42101256Y-49373185D01*
X42101258Y-49373184D01*
X42106221Y-49371224D01*
X42142343Y-49349305D01*
X42298757Y-49254390D01*
X42298756Y-49254390D01*
X42303317Y-49251623D01*
X42343134Y-49217072D01*
X42473412Y-49104023D01*
X42473414Y-49104021D01*
X42477445Y-49100523D01*
X42544500Y-49018744D01*
X42620240Y-48926373D01*
X42620244Y-48926367D01*
X42623624Y-48922245D01*
X42692982Y-48800400D01*
X46641500Y-48800400D01*
X46652474Y-48906166D01*
X46654655Y-48912702D01*
X46654655Y-48912704D01*
X46690033Y-49018744D01*
X46708450Y-49073946D01*
X46801522Y-49224348D01*
X46926697Y-49349305D01*
X46932927Y-49353145D01*
X46932928Y-49353146D01*
X47070090Y-49437694D01*
X47077262Y-49442115D01*
X47112938Y-49453948D01*
X47238611Y-49495632D01*
X47238613Y-49495632D01*
X47245139Y-49497797D01*
X47251975Y-49498497D01*
X47251978Y-49498498D01*
X47287663Y-49502154D01*
X47349600Y-49508500D01*
X48650400Y-49508500D01*
X48653646Y-49508163D01*
X48653650Y-49508163D01*
X48749308Y-49498238D01*
X48749312Y-49498237D01*
X48756166Y-49497526D01*
X48762702Y-49495345D01*
X48762704Y-49495345D01*
X48894806Y-49451272D01*
X48923946Y-49441550D01*
X49074348Y-49348478D01*
X49199305Y-49223303D01*
X49289081Y-49077660D01*
X49341852Y-49030168D01*
X49411924Y-49018744D01*
X49477048Y-49047018D01*
X49487510Y-49056805D01*
X49529215Y-49100523D01*
X49596576Y-49171135D01*
X49781542Y-49308754D01*
X49786293Y-49311170D01*
X49786297Y-49311172D01*
X49849481Y-49343296D01*
X49987051Y-49413240D01*
X49992145Y-49414822D01*
X49992148Y-49414823D01*
X50192020Y-49476885D01*
X50207227Y-49481607D01*
X50212516Y-49482308D01*
X50430489Y-49511198D01*
X50430494Y-49511198D01*
X50435774Y-49511898D01*
X50441103Y-49511698D01*
X50441105Y-49511698D01*
X50550966Y-49507574D01*
X50666158Y-49503249D01*
X50688802Y-49498498D01*
X50886572Y-49457002D01*
X50891791Y-49455907D01*
X50896750Y-49453949D01*
X50896752Y-49453948D01*
X51101256Y-49373185D01*
X51101258Y-49373184D01*
X51106221Y-49371224D01*
X51142343Y-49349305D01*
X51298757Y-49254390D01*
X51298756Y-49254390D01*
X51303317Y-49251623D01*
X51343134Y-49217072D01*
X51473412Y-49104023D01*
X51473414Y-49104021D01*
X51477445Y-49100523D01*
X51544500Y-49018744D01*
X51620240Y-48926373D01*
X51620244Y-48926367D01*
X51623624Y-48922245D01*
X51737675Y-48721886D01*
X51816337Y-48505175D01*
X51817287Y-48499923D01*
X51856623Y-48282392D01*
X51856624Y-48282385D01*
X51857361Y-48278308D01*
X51858500Y-48254156D01*
X51858500Y-47792110D01*
X51843920Y-47620280D01*
X51842582Y-47615125D01*
X51842581Y-47615119D01*
X51787343Y-47402297D01*
X51787342Y-47402293D01*
X51786001Y-47397128D01*
X51691312Y-47186925D01*
X51562559Y-46995681D01*
X51503918Y-46934209D01*
X51491347Y-46921032D01*
X51403424Y-46828865D01*
X51218458Y-46691246D01*
X51213707Y-46688830D01*
X51213703Y-46688828D01*
X51091731Y-46626815D01*
X51012949Y-46586760D01*
X51007855Y-46585178D01*
X51007852Y-46585177D01*
X50797871Y-46519976D01*
X50792773Y-46518393D01*
X50787484Y-46517692D01*
X50569511Y-46488802D01*
X50569506Y-46488802D01*
X50564226Y-46488102D01*
X50558897Y-46488302D01*
X50558895Y-46488302D01*
X50449034Y-46492427D01*
X50333842Y-46496751D01*
X50328623Y-46497846D01*
X50306566Y-46502474D01*
X50108209Y-46544093D01*
X50103250Y-46546051D01*
X50103248Y-46546052D01*
X49898744Y-46626815D01*
X49898742Y-46626816D01*
X49893779Y-46628776D01*
X49889220Y-46631543D01*
X49889217Y-46631544D01*
X49790832Y-46691246D01*
X49696683Y-46748377D01*
X49692653Y-46751874D01*
X49599484Y-46832722D01*
X49522555Y-46899477D01*
X49493330Y-46935120D01*
X49434671Y-46975114D01*
X49363701Y-46977046D01*
X49302952Y-46940302D01*
X49288752Y-46921532D01*
X49202332Y-46781880D01*
X49198478Y-46775652D01*
X49073303Y-46650695D01*
X49067072Y-46646854D01*
X48928968Y-46561725D01*
X48928966Y-46561724D01*
X48922738Y-46557885D01*
X48842995Y-46531436D01*
X48761389Y-46504368D01*
X48761387Y-46504368D01*
X48754861Y-46502203D01*
X48748025Y-46501503D01*
X48748022Y-46501502D01*
X48704969Y-46497091D01*
X48650400Y-46491500D01*
X47349600Y-46491500D01*
X47346354Y-46491837D01*
X47346350Y-46491837D01*
X47250692Y-46501762D01*
X47250688Y-46501763D01*
X47243834Y-46502474D01*
X47237298Y-46504655D01*
X47237296Y-46504655D01*
X47198220Y-46517692D01*
X47076054Y-46558450D01*
X46925652Y-46651522D01*
X46800695Y-46776697D01*
X46796855Y-46782927D01*
X46796854Y-46782928D01*
X46766161Y-46832722D01*
X46707885Y-46927262D01*
X46652203Y-47095139D01*
X46641500Y-47199600D01*
X46641500Y-48800400D01*
X42692982Y-48800400D01*
X42737675Y-48721886D01*
X42816337Y-48505175D01*
X42817287Y-48499923D01*
X42856623Y-48282392D01*
X42856624Y-48282385D01*
X42857361Y-48278308D01*
X42858500Y-48254156D01*
X42858500Y-47792110D01*
X42843920Y-47620280D01*
X42842582Y-47615125D01*
X42842581Y-47615119D01*
X42787343Y-47402297D01*
X42787342Y-47402293D01*
X42786001Y-47397128D01*
X42691312Y-47186925D01*
X42562559Y-46995681D01*
X42503918Y-46934209D01*
X42491347Y-46921032D01*
X42403424Y-46828865D01*
X42218458Y-46691246D01*
X42213707Y-46688830D01*
X42213703Y-46688828D01*
X42091731Y-46626815D01*
X42012949Y-46586760D01*
X42007855Y-46585178D01*
X42007852Y-46585177D01*
X41797871Y-46519976D01*
X41792773Y-46518393D01*
X41787484Y-46517692D01*
X41569511Y-46488802D01*
X41569506Y-46488802D01*
X41564226Y-46488102D01*
X41558897Y-46488302D01*
X41558895Y-46488302D01*
X41449034Y-46492427D01*
X41333842Y-46496751D01*
X41328623Y-46497846D01*
X41306566Y-46502474D01*
X41108209Y-46544093D01*
X41103250Y-46546051D01*
X41103248Y-46546052D01*
X40898744Y-46626815D01*
X40898742Y-46626816D01*
X40893779Y-46628776D01*
X40889220Y-46631543D01*
X40889217Y-46631544D01*
X40790832Y-46691246D01*
X40696683Y-46748377D01*
X40692653Y-46751874D01*
X40599484Y-46832722D01*
X40522555Y-46899477D01*
X40493330Y-46935120D01*
X40434671Y-46975114D01*
X40363701Y-46977046D01*
X40302952Y-46940302D01*
X40288752Y-46921532D01*
X40202332Y-46781880D01*
X40198478Y-46775652D01*
X40073303Y-46650695D01*
X40067072Y-46646854D01*
X39928968Y-46561725D01*
X39928966Y-46561724D01*
X39922738Y-46557885D01*
X39842995Y-46531436D01*
X39761389Y-46504368D01*
X39761387Y-46504368D01*
X39754861Y-46502203D01*
X39748025Y-46501503D01*
X39748022Y-46501502D01*
X39704969Y-46497091D01*
X39650400Y-46491500D01*
X38349600Y-46491500D01*
X38346354Y-46491837D01*
X38346350Y-46491837D01*
X38250692Y-46501762D01*
X38250688Y-46501763D01*
X38243834Y-46502474D01*
X38237298Y-46504655D01*
X38237296Y-46504655D01*
X38198220Y-46517692D01*
X38076054Y-46558450D01*
X37925652Y-46651522D01*
X37800695Y-46776697D01*
X37796855Y-46782927D01*
X37796854Y-46782928D01*
X37766161Y-46832722D01*
X37707885Y-46927262D01*
X37652203Y-47095139D01*
X37641500Y-47199600D01*
X37641500Y-48800400D01*
X35508500Y-48800400D01*
X35508500Y-40053250D01*
X35510246Y-40032345D01*
X35512770Y-40017344D01*
X35512770Y-40017341D01*
X35513576Y-40012552D01*
X35513729Y-40000000D01*
X35513039Y-39995184D01*
X35513039Y-39995178D01*
X35511387Y-39983644D01*
X35511154Y-39978918D01*
X37986917Y-39978918D01*
X37987334Y-39986156D01*
X38002682Y-40252320D01*
X38055405Y-40521053D01*
X38056792Y-40525103D01*
X38056793Y-40525108D01*
X38142723Y-40776088D01*
X38144112Y-40780144D01*
X38173238Y-40838054D01*
X38242837Y-40976437D01*
X38267160Y-41024799D01*
X38269586Y-41028328D01*
X38269589Y-41028334D01*
X38419843Y-41246953D01*
X38422274Y-41250490D01*
X38606582Y-41453043D01*
X38816675Y-41628707D01*
X38820316Y-41630991D01*
X39045024Y-41771951D01*
X39045028Y-41771953D01*
X39048664Y-41774234D01*
X39116544Y-41804883D01*
X39294345Y-41885164D01*
X39294349Y-41885166D01*
X39298257Y-41886930D01*
X39302377Y-41888150D01*
X39302376Y-41888150D01*
X39556723Y-41963491D01*
X39556727Y-41963492D01*
X39560836Y-41964709D01*
X39565070Y-41965357D01*
X39565075Y-41965358D01*
X39827298Y-42005483D01*
X39827300Y-42005483D01*
X39831540Y-42006132D01*
X39970912Y-42008322D01*
X40101071Y-42010367D01*
X40101077Y-42010367D01*
X40105362Y-42010434D01*
X40377235Y-41977534D01*
X40642127Y-41908041D01*
X40646087Y-41906401D01*
X40646092Y-41906399D01*
X40768632Y-41855641D01*
X40895136Y-41803241D01*
X41131582Y-41665073D01*
X41347089Y-41496094D01*
X41388809Y-41453043D01*
X41534686Y-41302509D01*
X41537669Y-41299431D01*
X41540202Y-41295983D01*
X41540206Y-41295978D01*
X41697257Y-41082178D01*
X41699795Y-41078723D01*
X41727154Y-41028334D01*
X41828418Y-40841830D01*
X41828419Y-40841828D01*
X41830468Y-40838054D01*
X41927269Y-40581877D01*
X41968173Y-40403279D01*
X41987449Y-40319117D01*
X41987450Y-40319113D01*
X41988407Y-40314933D01*
X41996910Y-40219665D01*
X42012531Y-40044627D01*
X42012531Y-40044625D01*
X42012751Y-40042161D01*
X42013193Y-40000000D01*
X42011465Y-39974648D01*
X41994859Y-39731055D01*
X41994858Y-39731049D01*
X41994567Y-39726778D01*
X41939032Y-39458612D01*
X41847617Y-39200465D01*
X41722013Y-38957112D01*
X41712040Y-38942921D01*
X41567008Y-38736562D01*
X41564545Y-38733057D01*
X41378125Y-38532445D01*
X41374810Y-38529731D01*
X41374806Y-38529728D01*
X41169523Y-38361706D01*
X41166205Y-38358990D01*
X40932704Y-38215901D01*
X40928768Y-38214173D01*
X40685873Y-38107549D01*
X40685869Y-38107548D01*
X40681945Y-38105825D01*
X40418566Y-38030800D01*
X40414324Y-38030196D01*
X40414318Y-38030195D01*
X40213834Y-38001662D01*
X40147443Y-37992213D01*
X40003589Y-37991460D01*
X39877877Y-37990802D01*
X39877871Y-37990802D01*
X39873591Y-37990780D01*
X39869347Y-37991339D01*
X39869343Y-37991339D01*
X39750302Y-38007011D01*
X39602078Y-38026525D01*
X39597938Y-38027658D01*
X39597936Y-38027658D01*
X39525008Y-38047609D01*
X39337928Y-38098788D01*
X39333980Y-38100472D01*
X39089982Y-38204546D01*
X39089978Y-38204548D01*
X39086030Y-38206232D01*
X39066125Y-38218145D01*
X38854725Y-38344664D01*
X38854721Y-38344667D01*
X38851043Y-38346868D01*
X38637318Y-38518094D01*
X38448808Y-38716742D01*
X38289002Y-38939136D01*
X38160857Y-39181161D01*
X38159385Y-39185184D01*
X38159383Y-39185188D01*
X38116872Y-39301355D01*
X38066743Y-39438337D01*
X38008404Y-39705907D01*
X37986917Y-39978918D01*
X35511154Y-39978918D01*
X35510234Y-39960284D01*
X35520430Y-39726778D01*
X35525352Y-39614035D01*
X35526310Y-39603086D01*
X35547999Y-39438337D01*
X35576019Y-39225502D01*
X35577927Y-39214685D01*
X35584467Y-39185188D01*
X35660353Y-38842885D01*
X35663198Y-38832268D01*
X35698526Y-38720222D01*
X35777718Y-38469061D01*
X35781474Y-38458739D01*
X35927220Y-38106877D01*
X35931862Y-38096924D01*
X35965672Y-38031977D01*
X36107706Y-37759132D01*
X36113201Y-37749613D01*
X36317820Y-37428426D01*
X36324124Y-37419422D01*
X36555962Y-37117284D01*
X36563028Y-37108863D01*
X36820314Y-36828086D01*
X36828086Y-36820314D01*
X37108863Y-36563028D01*
X37117284Y-36555962D01*
X37419422Y-36324124D01*
X37428426Y-36317820D01*
X37749613Y-36113201D01*
X37759133Y-36107705D01*
X38096933Y-35931858D01*
X38106877Y-35927220D01*
X38458746Y-35781471D01*
X38469061Y-35777718D01*
X38832269Y-35663198D01*
X38842886Y-35660353D01*
X39214693Y-35577926D01*
X39225502Y-35576019D01*
X39603087Y-35526310D01*
X39614035Y-35525352D01*
X39956554Y-35510397D01*
X39981429Y-35511777D01*
X39993724Y-35513691D01*
X40002626Y-35512527D01*
X40002628Y-35512527D01*
X40018914Y-35510397D01*
X40025286Y-35509564D01*
X40041621Y-35508500D01*
X54365500Y-35508500D01*
X54433621Y-35528502D01*
G37*
%TD.AperFunction*%
%TD*%
M02*
